<svg width="539" height="207" viewBox="0 0 539 207" fill="none" xmlns="http://www.w3.org/2000/svg">
<path d="M43.5713 205C19.5227 205 0 184.377 0 159.052L0 117.948C0 92.5874 19.5565 72 43.5713 72H495.429C519.477 72 539 92.623 539 117.948L539 159.052C539 184.413 519.444 205 495.429 205H43.5713Z" fill="#FFCA7B"/>
<path d="M43.5713 189C19.5227 189 0 166.399 0 138.644V50.3556C0 22.5624 19.5565 0 43.5713 0H495.429C519.477 0 539 22.6014 539 50.3556V138.644C539 166.438 519.444 189 495.429 189H43.5713Z" fill="#FDE8B3"/>
<path d="M496.765 177L42.2387 176.023C25.5228 176.023 12.0005 159.475 12.0005 139.111L12 48.9121C12 28.5068 25.5563 12 42.2382 12H496.761C513.477 12 526.999 28.5482 526.999 48.9121L527 139.111C527 159.516 513.481 177 496.765 177Z" fill="#FFF6D4"/>
<path d="M496.762 177H42.2382C25.5223 177 12 161.847 12 143.2L12 45.8005C12 27.1153 25.5563 12 42.2383 12H496.762C513.478 12 527 27.1533 527 45.8005L527 143.2C527 161.885 513.478 177 496.762 177Z" stroke="#FFB489" stroke-width="3" stroke-miterlimit="2.61313" stroke-linecap="round" stroke-dasharray="10 10"/>
<g clip-path="url(#clip0_158_78)">
<path d="M84.4658 91.3492C98.8833 92.2669 109.822 96.7267 109.822 102.088C109.822 108.115 96.0016 113 78.9537 113C61.9059 113 48.0859 108.115 48.0859 102.088C48.0859 96.7267 59.0242 92.2669 73.4416 91.3492" fill="#6EC1E4"/>
<g clip-path="url(#clip1_158_78)">
<path d="M78.8968 102.284C72.4473 102.284 58.1377 87.8699 58.1377 70.7564C58.1377 59.7906 67.4319 50.9011 78.8968 50.9011C90.3618 50.9011 99.656 59.7906 99.656 70.7564C99.656 87.8699 85.3464 102.284 78.8968 102.284Z" fill="url(#paint0_linear_158_78)"/>
<path d="M78.8965 77.743C82.9308 77.743 86.2012 74.615 86.2012 70.7564C86.2012 66.8977 82.9308 63.7697 78.8965 63.7697C74.8622 63.7697 71.5918 66.8977 71.5918 70.7564C71.5918 74.615 74.8622 77.743 78.8965 77.743Z" fill="white"/>
<path d="M71.2381 85.134C73.2497 85.134 74.8805 83.5742 74.8805 81.6502C74.8805 79.7261 73.2497 78.1664 71.2381 78.1664C69.2265 78.1664 67.5957 79.7261 67.5957 81.6502C67.5957 83.5742 69.2265 85.134 71.2381 85.134Z" fill="white"/>
<path d="M74.8802 81.6502C74.8802 82.7969 73.9083 83.7265 72.7094 83.7265C71.5105 83.7265 70.5386 82.7969 70.5386 81.6502C70.5386 80.5034 71.5105 79.5739 72.7094 79.5739C73.9083 79.5737 74.8802 80.5033 74.8802 81.6502Z" fill="#3B3B44"/>
<path d="M86.556 85.134C88.5676 85.134 90.1984 83.5742 90.1984 81.6502C90.1984 79.7261 88.5676 78.1664 86.556 78.1664C84.5443 78.1664 82.9136 79.7261 82.9136 81.6502C82.9136 83.5742 84.5443 85.134 86.556 85.134Z" fill="white"/>
<path d="M90.1908 81.6502C90.1908 82.7969 89.2189 83.7265 88.02 83.7265C86.821 83.7265 85.8491 82.7969 85.8491 81.6502C85.8491 80.5034 86.821 79.5739 88.02 79.5739C89.2189 79.5737 90.1908 80.5033 90.1908 81.6502Z" fill="#3B3B44"/>
<path d="M78.8968 86.3321C79.7969 86.3321 80.5265 85.4183 80.5265 84.2911C80.5265 83.1639 79.7969 82.2501 78.8968 82.2501C77.9967 82.2501 77.2671 83.1639 77.2671 84.2911C77.2671 85.4183 77.9967 86.3321 78.8968 86.3321Z" fill="white"/>
<path d="M82.5667 98.0234C82.1936 98.0234 81.8249 97.8615 81.5833 97.5544C81.1749 97.0355 81.2834 96.2979 81.8263 95.9073C82.7596 95.2353 83.7248 94.4042 84.6955 93.4368C85.1657 92.9681 85.9444 92.9527 86.4343 93.4026C86.9244 93.8524 86.9404 94.597 86.4701 95.0657C85.4085 96.1237 84.3438 97.0392 83.3055 97.7868C83.0839 97.9462 82.8241 98.0234 82.5667 98.0234Z" fill="#E3FCFF"/>
<path d="M88.7517 91.7742C88.5027 91.7742 88.2513 91.7021 88.0338 91.552C87.4828 91.1721 87.358 90.437 87.7551 89.9101C87.9076 89.7076 88.0637 89.4957 88.2189 89.2801C88.604 88.7449 89.3695 88.6098 89.9291 88.9782C90.4886 89.3465 90.63 90.0788 90.2448 90.614C90.0797 90.8435 89.9133 91.0695 89.7504 91.2856C89.5101 91.6045 89.1336 91.7742 88.7517 91.7742Z" fill="#E3FCFF"/>
</g>
</g>
<path d="M136.863 54.2H144.207C145.999 54.2 147.591 54.552 148.983 55.256C150.375 55.944 151.455 56.928 152.223 58.208C152.991 59.472 153.375 60.936 153.375 62.6C153.375 64.264 152.991 65.736 152.223 67.016C151.455 68.28 150.375 69.264 148.983 69.968C147.591 70.656 145.999 71 144.207 71H136.863V54.2ZM144.063 68.36C145.295 68.36 146.375 68.128 147.303 67.664C148.247 67.184 148.967 66.512 149.463 65.648C149.975 64.768 150.231 63.752 150.231 62.6C150.231 61.448 149.975 60.44 149.463 59.576C148.967 58.696 148.247 58.024 147.303 57.56C146.375 57.08 145.295 56.84 144.063 56.84H139.983V68.36H144.063ZM134.487 61.304H144.471V63.608H134.487V61.304ZM156.398 58.184H159.398V71H156.398V58.184ZM157.91 56.072C157.366 56.072 156.91 55.904 156.542 55.568C156.174 55.216 155.99 54.784 155.99 54.272C155.99 53.76 156.174 53.336 156.542 53C156.91 52.648 157.366 52.472 157.91 52.472C158.454 52.472 158.91 52.64 159.278 52.976C159.646 53.296 159.83 53.704 159.83 54.2C159.83 54.728 159.646 55.176 159.278 55.544C158.926 55.896 158.47 56.072 157.91 56.072ZM157.91 75.872C157.494 75.872 157.15 75.744 156.878 75.488C156.606 75.232 156.47 74.888 156.47 74.456C156.47 74.04 156.606 73.688 156.878 73.4C157.15 73.128 157.494 72.992 157.91 72.992C158.326 72.992 158.67 73.128 158.942 73.4C159.214 73.688 159.35 74.04 159.35 74.456C159.35 74.888 159.214 75.232 158.942 75.488C158.67 75.744 158.326 75.872 157.91 75.872ZM168.231 58.04C170.119 58.04 171.559 58.496 172.551 59.408C173.559 60.304 174.063 61.664 174.063 63.488V71H171.231V69.44C170.863 70 170.335 70.432 169.647 70.736C168.975 71.024 168.159 71.168 167.199 71.168C166.239 71.168 165.399 71.008 164.679 70.688C163.959 70.352 163.399 69.896 162.999 69.32C162.615 68.728 162.423 68.064 162.423 67.328C162.423 66.176 162.847 65.256 163.695 64.568C164.559 63.864 165.911 63.512 167.751 63.512H171.063V63.32C171.063 62.424 170.791 61.736 170.247 61.256C169.719 60.776 168.927 60.536 167.871 60.536C167.151 60.536 166.439 60.648 165.735 60.872C165.047 61.096 164.463 61.408 163.983 61.808L162.807 59.624C163.479 59.112 164.287 58.72 165.231 58.448C166.175 58.176 167.175 58.04 168.231 58.04ZM167.823 68.984C168.575 68.984 169.239 68.816 169.815 68.48C170.407 68.128 170.823 67.632 171.063 66.992V65.504H167.967C166.239 65.504 165.375 66.072 165.375 67.208C165.375 67.752 165.591 68.184 166.023 68.504C166.455 68.824 167.055 68.984 167.823 68.984ZM190.426 71.168C189.098 71.168 187.906 70.888 186.85 70.328C185.794 69.768 184.97 68.992 184.378 68C183.786 66.992 183.49 65.856 183.49 64.592C183.49 63.328 183.786 62.2 184.378 61.208C184.97 60.216 185.786 59.44 186.826 58.88C187.882 58.32 189.082 58.04 190.426 58.04C191.69 58.04 192.794 58.296 193.738 58.808C194.698 59.32 195.418 60.056 195.898 61.016L193.594 62.36C193.226 61.768 192.762 61.328 192.202 61.04C191.658 60.736 191.058 60.584 190.402 60.584C189.282 60.584 188.354 60.952 187.618 61.688C186.882 62.408 186.514 63.376 186.514 64.592C186.514 65.808 186.874 66.784 187.594 67.52C188.33 68.24 189.266 68.6 190.402 68.6C191.058 68.6 191.658 68.456 192.202 68.168C192.762 67.864 193.226 67.416 193.594 66.824L195.898 68.168C195.402 69.128 194.674 69.872 193.714 70.4C192.77 70.912 191.674 71.168 190.426 71.168ZM205.646 58.04C207.262 58.04 208.558 58.512 209.534 59.456C210.51 60.4 210.998 61.8 210.998 63.656V71H207.998V64.04C207.998 62.92 207.734 62.08 207.206 61.52C206.678 60.944 205.926 60.656 204.95 60.656C203.846 60.656 202.974 60.992 202.334 61.664C201.694 62.32 201.374 63.272 201.374 64.52V71H198.374V53.192H201.374V59.672C201.87 59.144 202.478 58.744 203.198 58.472C203.934 58.184 204.75 58.04 205.646 58.04ZM214.804 58.184H217.804V71H214.804V58.184ZM215.932 55.568C216.396 55.36 216.724 55.136 216.916 54.896C217.124 54.64 217.228 54.352 217.228 54.032C217.228 53.728 217.116 53.48 216.892 53.288C216.668 53.08 216.38 52.976 216.028 52.976C215.532 52.976 215.052 53.128 214.588 53.432L213.94 52.112C214.26 51.872 214.628 51.688 215.044 51.56C215.46 51.432 215.892 51.368 216.34 51.368C217.108 51.368 217.74 51.592 218.236 52.04C218.732 52.472 218.98 53.048 218.98 53.768C218.98 55.064 218.292 56.032 216.916 56.672L215.932 55.568ZM222.701 62.024C222.157 62.024 221.693 61.84 221.309 61.472C220.925 61.088 220.733 60.608 220.733 60.032C220.733 59.44 220.917 58.96 221.285 58.592C221.669 58.224 222.141 58.04 222.701 58.04C223.261 58.04 223.725 58.224 224.093 58.592C224.477 58.96 224.669 59.44 224.669 60.032C224.669 60.608 224.477 61.088 224.093 61.472C223.709 61.84 223.245 62.024 222.701 62.024ZM222.701 71.168C222.157 71.168 221.693 70.984 221.309 70.616C220.925 70.232 220.733 69.752 220.733 69.176C220.733 68.584 220.917 68.104 221.285 67.736C221.669 67.368 222.141 67.184 222.701 67.184C223.261 67.184 223.725 67.368 224.093 67.736C224.477 68.104 224.669 68.584 224.669 69.176C224.669 69.752 224.477 70.232 224.093 70.616C223.709 70.984 223.245 71.168 222.701 71.168Z" fill="#12265A"/>
<path opacity="0.7" d="M142.568 97.394C143.288 97.67 143.84 98.066 144.224 98.582C144.608 99.098 144.8 99.716 144.8 100.436C144.8 101.192 144.596 101.852 144.188 102.416C143.78 102.968 143.198 103.394 142.442 103.694C141.686 103.994 140.798 104.144 139.778 104.144C138.77 104.144 137.888 103.994 137.132 103.694C136.388 103.394 135.812 102.968 135.404 102.416C134.996 101.852 134.792 101.192 134.792 100.436C134.792 99.716 134.978 99.098 135.35 98.582C135.734 98.066 136.286 97.67 137.006 97.394C136.43 97.118 135.992 96.752 135.692 96.296C135.392 95.84 135.242 95.3 135.242 94.676C135.242 93.98 135.428 93.374 135.8 92.858C136.184 92.342 136.718 91.946 137.402 91.67C138.086 91.394 138.878 91.256 139.778 91.256C140.69 91.256 141.488 91.394 142.172 91.67C142.868 91.946 143.402 92.342 143.774 92.858C144.158 93.374 144.35 93.98 144.35 94.676C144.35 95.288 144.194 95.828 143.882 96.296C143.582 96.752 143.144 97.118 142.568 97.394ZM139.778 92.714C138.926 92.714 138.254 92.9 137.762 93.272C137.27 93.632 137.024 94.124 137.024 94.748C137.024 95.372 137.264 95.864 137.744 96.224C138.236 96.584 138.914 96.764 139.778 96.764C140.654 96.764 141.338 96.584 141.83 96.224C142.334 95.864 142.586 95.372 142.586 94.748C142.586 94.124 142.328 93.632 141.812 93.272C141.308 92.9 140.63 92.714 139.778 92.714ZM139.778 102.686C140.774 102.686 141.56 102.482 142.136 102.074C142.712 101.654 143 101.09 143 100.382C143 99.686 142.712 99.14 142.136 98.744C141.56 98.336 140.774 98.132 139.778 98.132C138.782 98.132 138.002 98.336 137.438 98.744C136.874 99.14 136.592 99.686 136.592 100.382C136.592 101.09 136.874 101.654 137.438 102.074C138.002 102.482 138.782 102.686 139.778 102.686ZM151.884 96.35C152.712 96.35 153.45 96.506 154.098 96.818C154.758 97.13 155.274 97.58 155.646 98.168C156.018 98.744 156.204 99.41 156.204 100.166C156.204 100.958 156.006 101.654 155.61 102.254C155.226 102.854 154.692 103.322 154.008 103.658C153.336 103.982 152.58 104.144 151.74 104.144C150.048 104.144 148.74 103.598 147.816 102.506C146.904 101.414 146.448 99.866 146.448 97.862C146.448 96.458 146.694 95.264 147.186 94.28C147.69 93.284 148.386 92.534 149.274 92.03C150.174 91.514 151.218 91.256 152.406 91.256C153.018 91.256 153.594 91.322 154.134 91.454C154.674 91.574 155.142 91.754 155.538 91.994L154.854 93.398C154.254 93.002 153.45 92.804 152.442 92.804C151.134 92.804 150.108 93.212 149.364 94.028C148.62 94.832 148.248 96.008 148.248 97.556C148.248 97.748 148.254 97.898 148.266 98.006C148.626 97.466 149.118 97.058 149.742 96.782C150.378 96.494 151.092 96.35 151.884 96.35ZM151.668 102.686C152.496 102.686 153.168 102.464 153.684 102.02C154.2 101.576 154.458 100.982 154.458 100.238C154.458 99.494 154.194 98.906 153.666 98.474C153.15 98.03 152.454 97.808 151.578 97.808C151.014 97.808 150.51 97.916 150.066 98.132C149.634 98.348 149.292 98.642 149.04 99.014C148.8 99.386 148.68 99.8 148.68 100.256C148.68 100.7 148.794 101.108 149.022 101.48C149.262 101.84 149.604 102.134 150.048 102.362C150.504 102.578 151.044 102.686 151.668 102.686ZM162.305 88.844H163.871L157.931 105.8H156.365L162.305 88.844ZM168.885 96.692C170.121 96.812 171.063 97.196 171.711 97.844C172.359 98.48 172.683 99.296 172.683 100.292C172.683 101.012 172.503 101.666 172.143 102.254C171.783 102.83 171.243 103.292 170.523 103.64C169.815 103.976 168.945 104.144 167.913 104.144C167.013 104.144 166.149 104.012 165.321 103.748C164.493 103.472 163.815 103.094 163.287 102.614L164.115 101.192C164.547 101.6 165.099 101.93 165.771 102.182C166.443 102.422 167.157 102.542 167.913 102.542C168.849 102.542 169.575 102.344 170.091 101.948C170.619 101.552 170.883 101.006 170.883 100.31C170.883 99.614 170.625 99.074 170.109 98.69C169.593 98.306 168.813 98.114 167.769 98.114H166.761V96.854L169.929 92.966H163.863V91.4H172.179V92.624L168.885 96.692ZM179.098 96.692C180.334 96.812 181.276 97.196 181.924 97.844C182.572 98.48 182.896 99.296 182.896 100.292C182.896 101.012 182.716 101.666 182.356 102.254C181.996 102.83 181.456 103.292 180.736 103.64C180.028 103.976 179.158 104.144 178.126 104.144C177.226 104.144 176.362 104.012 175.534 103.748C174.706 103.472 174.028 103.094 173.5 102.614L174.328 101.192C174.76 101.6 175.312 101.93 175.984 102.182C176.656 102.422 177.37 102.542 178.126 102.542C179.062 102.542 179.788 102.344 180.304 101.948C180.832 101.552 181.096 101.006 181.096 100.31C181.096 99.614 180.838 99.074 180.322 98.69C179.806 98.306 179.026 98.114 177.982 98.114H176.974V96.854L180.142 92.966H174.076V91.4H182.392V92.624L179.098 96.692ZM198.463 100.85H191.767L190.381 104H188.527L194.233 91.4H196.015L201.739 104H199.849L198.463 100.85ZM197.833 99.41L195.115 93.236L192.397 99.41H197.833ZM196.789 90.374L195.133 88.988L193.477 90.374H191.911L194.305 88.034H195.961L198.355 90.374H196.789ZM212.083 94.46V104H210.445V102.56C210.097 103.052 209.635 103.436 209.059 103.712C208.495 103.976 207.877 104.108 207.205 104.108C205.933 104.108 204.931 103.76 204.199 103.064C203.467 102.356 203.101 101.318 203.101 99.95V94.46H204.829V99.752C204.829 100.676 205.051 101.378 205.495 101.858C205.939 102.326 206.575 102.56 207.403 102.56C208.315 102.56 209.035 102.284 209.563 101.732C210.091 101.18 210.355 100.4 210.355 99.392V94.46H212.083ZM226.092 104.144C224.832 104.144 223.692 103.868 222.672 103.316C221.664 102.752 220.872 101.984 220.296 101.012C219.72 100.028 219.432 98.924 219.432 97.7C219.432 96.476 219.72 95.378 220.296 94.406C220.872 93.422 221.67 92.654 222.69 92.102C223.71 91.538 224.85 91.256 226.11 91.256C227.094 91.256 227.994 91.424 228.81 91.76C229.626 92.084 230.322 92.57 230.898 93.218L229.728 94.352C228.78 93.356 227.598 92.858 226.182 92.858C225.246 92.858 224.4 93.068 223.644 93.488C222.888 93.908 222.294 94.49 221.862 95.234C221.442 95.966 221.232 96.788 221.232 97.7C221.232 98.612 221.442 99.44 221.862 100.184C222.294 100.916 222.888 101.492 223.644 101.912C224.4 102.332 225.246 102.542 226.182 102.542C227.586 102.542 228.768 102.038 229.728 101.03L230.898 102.164C230.322 102.812 229.62 103.304 228.792 103.64C227.976 103.976 227.076 104.144 226.092 104.144ZM240.118 95.468C240.67 95.912 241.096 96.458 241.396 97.106C241.696 97.742 241.846 98.45 241.846 99.23C241.846 100.166 241.63 101.006 241.198 101.75C240.778 102.482 240.19 103.058 239.434 103.478C238.69 103.898 237.844 104.108 236.896 104.108C235.948 104.108 235.096 103.898 234.34 103.478C233.584 103.058 232.99 102.482 232.558 101.75C232.138 101.006 231.928 100.166 231.928 99.23C231.928 98.294 232.144 97.46 232.576 96.728C233.008 95.984 233.602 95.408 234.358 95C235.114 94.58 235.966 94.37 236.914 94.37C237.154 94.37 237.388 94.382 237.616 94.406C237.844 94.418 238.006 94.424 238.102 94.424C238.402 94.46 238.732 94.478 239.092 94.478C239.536 94.478 239.872 94.364 240.1 94.136C240.34 93.908 240.46 93.62 240.46 93.272C240.46 92.876 240.334 92.498 240.082 92.138L241.162 91.724C241.51 92.216 241.684 92.75 241.684 93.326C241.684 93.854 241.546 94.304 241.27 94.676C241.006 95.048 240.622 95.312 240.118 95.468ZM236.896 102.596C237.496 102.596 238.042 102.458 238.534 102.182C239.026 101.894 239.41 101.498 239.686 100.994C239.962 100.478 240.1 99.89 240.1 99.23C240.1 98.57 239.962 97.988 239.686 97.484C239.41 96.968 239.026 96.572 238.534 96.296C238.054 96.02 237.508 95.882 236.896 95.882C236.284 95.882 235.732 96.02 235.24 96.296C234.76 96.572 234.376 96.968 234.088 97.484C233.812 97.988 233.674 98.57 233.674 99.23C233.674 99.89 233.812 100.478 234.088 100.994C234.376 101.498 234.76 101.894 235.24 102.182C235.732 102.458 236.284 102.596 236.896 102.596ZM244.457 101.642C244.793 101.642 245.069 101.762 245.285 102.002C245.513 102.23 245.627 102.518 245.627 102.866C245.627 103.046 245.603 103.22 245.555 103.388C245.519 103.556 245.441 103.814 245.321 104.162L244.475 106.664H243.341L244.007 103.982C243.779 103.898 243.593 103.76 243.449 103.568C243.317 103.364 243.251 103.13 243.251 102.866C243.251 102.506 243.365 102.212 243.593 101.984C243.821 101.756 244.109 101.642 244.457 101.642ZM258.103 91.4C259.735 91.4 261.019 91.79 261.955 92.57C262.891 93.35 263.359 94.424 263.359 95.792C263.359 97.16 262.891 98.234 261.955 99.014C261.019 99.794 259.735 100.184 258.103 100.184H254.989V104H253.189V91.4H258.103ZM258.049 98.618C259.189 98.618 260.059 98.378 260.659 97.898C261.259 97.406 261.559 96.704 261.559 95.792C261.559 94.88 261.259 94.184 260.659 93.704C260.059 93.212 259.189 92.966 258.049 92.966H254.989V98.618H258.049ZM271.021 94.37C272.233 94.37 273.193 94.724 273.901 95.432C274.621 96.128 274.981 97.154 274.981 98.51V104H273.253V98.708C273.253 97.784 273.031 97.088 272.587 96.62C272.143 96.152 271.507 95.918 270.679 95.918C269.743 95.918 269.005 96.194 268.465 96.746C267.925 97.286 267.655 98.066 267.655 99.086V104H265.927V90.644H267.655V95.81C268.015 95.354 268.483 95 269.059 94.748C269.647 94.496 270.301 94.37 271.021 94.37ZM287.071 94.46V104H285.433V102.56C285.085 103.052 284.623 103.436 284.047 103.712C283.483 103.976 282.865 104.108 282.193 104.108C280.921 104.108 279.919 103.76 279.187 103.064C278.455 102.356 278.089 101.318 278.089 99.95V94.46H279.817V99.752C279.817 100.676 280.039 101.378 280.483 101.858C280.927 102.326 281.563 102.56 282.391 102.56C283.303 102.56 284.023 102.284 284.551 101.732C285.079 101.18 285.343 100.4 285.343 99.392V94.46H287.071ZM285.901 94.46H286.225C286.609 94.46 286.897 94.352 287.089 94.136C287.281 93.92 287.377 93.638 287.377 93.29C287.377 92.858 287.257 92.48 287.017 92.156L288.115 91.742C288.451 92.198 288.619 92.732 288.619 93.344C288.619 94.088 288.403 94.682 287.971 95.126C287.551 95.558 286.969 95.774 286.225 95.774H285.901V94.46ZM297.458 95.468C298.01 95.912 298.436 96.458 298.736 97.106C299.036 97.742 299.186 98.45 299.186 99.23C299.186 100.166 298.97 101.006 298.538 101.75C298.118 102.482 297.53 103.058 296.774 103.478C296.03 103.898 295.184 104.108 294.236 104.108C293.288 104.108 292.436 103.898 291.68 103.478C290.924 103.058 290.33 102.482 289.898 101.75C289.478 101.006 289.268 100.166 289.268 99.23C289.268 98.294 289.484 97.46 289.916 96.728C290.348 95.984 290.942 95.408 291.698 95C292.454 94.58 293.306 94.37 294.254 94.37C294.494 94.37 294.728 94.382 294.956 94.406C295.184 94.418 295.346 94.424 295.442 94.424C295.742 94.46 296.072 94.478 296.432 94.478C296.876 94.478 297.212 94.364 297.44 94.136C297.68 93.908 297.8 93.62 297.8 93.272C297.8 92.876 297.674 92.498 297.422 92.138L298.502 91.724C298.85 92.216 299.024 92.75 299.024 93.326C299.024 93.854 298.886 94.304 298.61 94.676C298.346 95.048 297.962 95.312 297.458 95.468ZM294.236 102.596C294.836 102.596 295.382 102.458 295.874 102.182C296.366 101.894 296.75 101.498 297.026 100.994C297.302 100.478 297.44 99.89 297.44 99.23C297.44 98.57 297.302 97.988 297.026 97.484C296.75 96.968 296.366 96.572 295.874 96.296C295.394 96.02 294.848 95.882 294.236 95.882C293.624 95.882 293.072 96.02 292.58 96.296C292.1 96.572 291.716 96.968 291.428 97.484C291.152 97.988 291.014 98.57 291.014 99.23C291.014 99.89 291.152 100.478 291.428 100.994C291.716 101.498 292.1 101.894 292.58 102.182C293.072 102.458 293.624 102.596 294.236 102.596ZM290.942 90.734H293.138L295.586 93.074H293.966L290.942 90.734ZM306.67 94.37C307.882 94.37 308.842 94.724 309.55 95.432C310.27 96.128 310.63 97.154 310.63 98.51V104H308.902V98.708C308.902 97.784 308.68 97.088 308.236 96.62C307.792 96.152 307.156 95.918 306.328 95.918C305.392 95.918 304.654 96.194 304.114 96.746C303.574 97.286 303.304 98.066 303.304 99.086V104H301.576V94.46H303.232V95.9C303.58 95.408 304.048 95.03 304.636 94.766C305.236 94.502 305.914 94.37 306.67 94.37ZM323.006 94.46V102.704C323.006 104.372 322.592 105.602 321.764 106.394C320.936 107.198 319.7 107.6 318.056 107.6C317.156 107.6 316.298 107.474 315.482 107.222C314.666 106.982 314.006 106.634 313.502 106.178L314.33 104.846C314.774 105.23 315.32 105.53 315.968 105.746C316.628 105.974 317.306 106.088 318.002 106.088C319.118 106.088 319.94 105.824 320.468 105.296C321.008 104.768 321.278 103.964 321.278 102.884V102.128C320.87 102.62 320.366 102.992 319.766 103.244C319.178 103.484 318.536 103.604 317.84 103.604C316.928 103.604 316.1 103.412 315.356 103.028C314.624 102.632 314.048 102.086 313.628 101.39C313.208 100.682 312.998 99.878 312.998 98.978C312.998 98.078 313.208 97.28 313.628 96.584C314.048 95.876 314.624 95.33 315.356 94.946C316.1 94.562 316.928 94.37 317.84 94.37C318.56 94.37 319.226 94.502 319.838 94.766C320.462 95.03 320.972 95.42 321.368 95.936V94.46H323.006ZM318.038 102.092C318.662 102.092 319.22 101.96 319.712 101.696C320.216 101.432 320.606 101.066 320.882 100.598C321.17 100.118 321.314 99.578 321.314 98.978C321.314 98.054 321.008 97.31 320.396 96.746C319.784 96.17 318.998 95.882 318.038 95.882C317.066 95.882 316.274 96.17 315.662 96.746C315.05 97.31 314.744 98.054 314.744 98.978C314.744 99.578 314.882 100.118 315.158 100.598C315.446 101.066 315.836 101.432 316.328 101.696C316.832 101.96 317.402 102.092 318.038 102.092ZM334.454 91.256C336.146 91.256 337.448 91.802 338.36 92.894C339.284 93.986 339.746 95.534 339.746 97.538C339.746 98.942 339.494 100.142 338.99 101.138C338.498 102.122 337.802 102.872 336.902 103.388C336.014 103.892 334.976 104.144 333.788 104.144C333.176 104.144 332.6 104.084 332.06 103.964C331.52 103.832 331.052 103.646 330.656 103.406L331.34 102.002C331.952 102.398 332.762 102.596 333.77 102.596C335.078 102.596 336.098 102.194 336.83 101.39C337.574 100.574 337.946 99.392 337.946 97.844V97.394C337.586 97.934 337.088 98.348 336.452 98.636C335.816 98.912 335.102 99.05 334.31 99.05C333.482 99.05 332.738 98.894 332.078 98.582C331.43 98.27 330.92 97.826 330.548 97.25C330.188 96.662 330.008 95.99 330.008 95.234C330.008 94.442 330.2 93.746 330.584 93.146C330.98 92.546 331.514 92.084 332.186 91.76C332.858 91.424 333.614 91.256 334.454 91.256ZM334.616 97.592C335.18 97.592 335.684 97.484 336.128 97.268C336.572 97.052 336.914 96.758 337.154 96.386C337.406 96.014 337.532 95.6 337.532 95.144C337.532 94.7 337.412 94.298 337.172 93.938C336.944 93.566 336.602 93.272 336.146 93.056C335.702 92.828 335.162 92.714 334.526 92.714C333.698 92.714 333.026 92.936 332.51 93.38C332.006 93.824 331.754 94.418 331.754 95.162C331.754 95.906 332.012 96.5 332.528 96.944C333.044 97.376 333.74 97.592 334.616 97.592ZM342.472 101.642C342.808 101.642 343.084 101.762 343.3 102.002C343.528 102.23 343.642 102.518 343.642 102.866C343.642 103.046 343.618 103.22 343.57 103.388C343.534 103.556 343.456 103.814 343.336 104.162L342.49 106.664H341.356L342.022 103.982C341.794 103.898 341.608 103.76 341.464 103.568C341.332 103.364 341.266 103.13 341.266 102.866C341.266 102.506 341.38 102.212 341.608 101.984C341.836 101.756 342.124 101.642 342.472 101.642ZM364.182 105.152C363.774 105.632 363.3 105.998 362.76 106.25C362.22 106.502 361.638 106.628 361.014 106.628C360.222 106.628 359.478 106.436 358.782 106.052C358.098 105.68 357.312 105.038 356.424 104.126C355.236 104.066 354.162 103.748 353.202 103.172C352.254 102.596 351.51 101.834 350.97 100.886C350.442 99.926 350.178 98.864 350.178 97.7C350.178 96.488 350.466 95.39 351.042 94.406C351.63 93.422 352.434 92.654 353.454 92.102C354.474 91.538 355.62 91.256 356.892 91.256C358.152 91.256 359.292 91.538 360.312 92.102C361.332 92.654 362.13 93.422 362.706 94.406C363.282 95.378 363.57 96.476 363.57 97.7C363.57 98.732 363.36 99.68 362.94 100.544C362.532 101.408 361.95 102.134 361.194 102.722C360.45 103.31 359.592 103.718 358.62 103.946C359.04 104.39 359.442 104.708 359.826 104.9C360.222 105.104 360.624 105.206 361.032 105.206C361.92 105.206 362.688 104.846 363.336 104.126L364.182 105.152ZM351.978 97.7C351.978 98.612 352.188 99.44 352.608 100.184C353.04 100.916 353.628 101.492 354.372 101.912C355.128 102.332 355.968 102.542 356.892 102.542C357.804 102.542 358.632 102.332 359.376 101.912C360.12 101.492 360.702 100.916 361.122 100.184C361.554 99.44 361.77 98.612 361.77 97.7C361.77 96.788 361.554 95.966 361.122 95.234C360.702 94.49 360.12 93.908 359.376 93.488C358.632 93.068 357.804 92.858 356.892 92.858C355.968 92.858 355.128 93.068 354.372 93.488C353.628 93.908 353.04 94.49 352.608 95.234C352.188 95.966 351.978 96.788 351.978 97.7ZM374.962 94.46V104H373.324V102.56C372.976 103.052 372.514 103.436 371.938 103.712C371.374 103.976 370.756 104.108 370.084 104.108C368.812 104.108 367.81 103.76 367.078 103.064C366.346 102.356 365.98 101.318 365.98 99.95V94.46H367.708V99.752C367.708 100.676 367.93 101.378 368.374 101.858C368.818 102.326 369.454 102.56 370.282 102.56C371.194 102.56 371.914 102.284 372.442 101.732C372.97 101.18 373.234 100.4 373.234 99.392V94.46H374.962ZM381.725 94.37C383.045 94.37 384.053 94.694 384.749 95.342C385.457 95.99 385.811 96.956 385.811 98.24V104H384.173V102.74C383.885 103.184 383.471 103.526 382.931 103.766C382.403 103.994 381.773 104.108 381.041 104.108C379.973 104.108 379.115 103.85 378.467 103.334C377.831 102.818 377.513 102.14 377.513 101.3C377.513 100.46 377.819 99.788 378.431 99.284C379.043 98.768 380.015 98.51 381.347 98.51H384.083V98.168C384.083 97.424 383.867 96.854 383.435 96.458C383.003 96.062 382.367 95.864 381.527 95.864C380.963 95.864 380.411 95.96 379.871 96.152C379.331 96.332 378.875 96.578 378.503 96.89L377.783 95.594C378.275 95.198 378.863 94.898 379.547 94.694C380.231 94.478 380.957 94.37 381.725 94.37ZM381.329 102.776C381.989 102.776 382.559 102.632 383.039 102.344C383.519 102.044 383.867 101.624 384.083 101.084V99.752H381.419C379.955 99.752 379.223 100.244 379.223 101.228C379.223 101.708 379.409 102.086 379.781 102.362C380.153 102.638 380.669 102.776 381.329 102.776ZM381.815 107.528C381.563 107.528 381.347 107.444 381.167 107.276C380.987 107.108 380.897 106.892 380.897 106.628C380.897 106.364 380.987 106.142 381.167 105.962C381.347 105.782 381.563 105.692 381.815 105.692C382.067 105.692 382.283 105.782 382.463 105.962C382.643 106.142 382.733 106.364 382.733 106.628C382.733 106.892 382.643 107.108 382.463 107.276C382.283 107.444 382.067 107.528 381.815 107.528ZM383.507 93.074L381.851 91.688L380.195 93.074H378.629L381.023 90.734H382.679L385.073 93.074H383.507ZM394.103 94.37C395.315 94.37 396.275 94.724 396.983 95.432C397.703 96.128 398.063 97.154 398.063 98.51V104H396.335V98.708C396.335 97.784 396.113 97.088 395.669 96.62C395.225 96.152 394.589 95.918 393.761 95.918C392.825 95.918 392.087 96.194 391.547 96.746C391.007 97.286 390.737 98.066 390.737 99.086V104H389.009V94.46H390.665V95.9C391.013 95.408 391.481 95.03 392.069 94.766C392.669 94.502 393.347 94.37 394.103 94.37ZM408.849 92.966H404.529V91.4H414.951V92.966H410.631V104H408.849V92.966ZM419.624 94.37C420.944 94.37 421.952 94.694 422.648 95.342C423.356 95.99 423.71 96.956 423.71 98.24V104H422.072V102.74C421.784 103.184 421.37 103.526 420.83 103.766C420.302 103.994 419.672 104.108 418.94 104.108C417.872 104.108 417.014 103.85 416.366 103.334C415.73 102.818 415.412 102.14 415.412 101.3C415.412 100.46 415.718 99.788 416.33 99.284C416.942 98.768 417.914 98.51 419.246 98.51H421.982V98.168C421.982 97.424 421.766 96.854 421.334 96.458C420.902 96.062 420.266 95.864 419.426 95.864C418.862 95.864 418.31 95.96 417.77 96.152C417.23 96.332 416.774 96.578 416.402 96.89L415.682 95.594C416.174 95.198 416.762 94.898 417.446 94.694C418.13 94.478 418.856 94.37 419.624 94.37ZM419.228 102.776C419.888 102.776 420.458 102.632 420.938 102.344C421.418 102.044 421.766 101.624 421.982 101.084V99.752H419.318C417.854 99.752 417.122 100.244 417.122 101.228C417.122 101.708 417.308 102.086 417.68 102.362C418.052 102.638 418.568 102.776 419.228 102.776ZM421.406 93.074L419.75 91.688L418.094 93.074H416.528L418.922 90.734H420.578L422.972 93.074H421.406ZM432.002 94.37C433.214 94.37 434.174 94.724 434.882 95.432C435.602 96.128 435.962 97.154 435.962 98.51V104H434.234V98.708C434.234 97.784 434.012 97.088 433.568 96.62C433.124 96.152 432.488 95.918 431.66 95.918C430.724 95.918 429.986 96.194 429.446 96.746C428.906 97.286 428.636 98.066 428.636 99.086V104H426.908V94.46H428.564V95.9C428.912 95.408 429.38 95.03 429.968 94.766C430.568 94.502 431.246 94.37 432.002 94.37ZM452.723 97.466C453.455 97.67 454.031 98.042 454.451 98.582C454.871 99.11 455.081 99.782 455.081 100.598C455.081 101.69 454.667 102.53 453.839 103.118C453.023 103.706 451.829 104 450.257 104H444.245V91.4H449.897C451.337 91.4 452.447 91.688 453.227 92.264C454.019 92.84 454.415 93.638 454.415 94.658C454.415 95.318 454.259 95.888 453.947 96.368C453.647 96.848 453.239 97.214 452.723 97.466ZM446.045 92.858V96.89H449.735C450.659 96.89 451.367 96.722 451.859 96.386C452.363 96.038 452.615 95.534 452.615 94.874C452.615 94.214 452.363 93.716 451.859 93.38C451.367 93.032 450.659 92.858 449.735 92.858H446.045ZM450.185 102.542C451.205 102.542 451.973 102.374 452.489 102.038C453.005 101.702 453.263 101.174 453.263 100.454C453.263 99.05 452.237 98.348 450.185 98.348H446.045V102.542H450.185ZM457.617 94.46H459.345V104H457.617V94.46ZM455.187 90.734H457.383L459.831 93.074H458.211L455.187 90.734ZM467.738 94.37C468.95 94.37 469.91 94.724 470.618 95.432C471.338 96.128 471.698 97.154 471.698 98.51V104H469.97V98.708C469.97 97.784 469.748 97.088 469.304 96.62C468.86 96.152 468.224 95.918 467.396 95.918C466.46 95.918 465.722 96.194 465.182 96.746C464.642 97.286 464.372 98.066 464.372 99.086V104H462.644V94.46H464.3V95.9C464.648 95.408 465.116 95.03 465.704 94.766C466.304 94.502 466.982 94.37 467.738 94.37ZM479.99 94.37C481.202 94.37 482.162 94.724 482.87 95.432C483.59 96.128 483.95 97.154 483.95 98.51V104H482.222V98.708C482.222 97.784 482 97.088 481.556 96.62C481.112 96.152 480.476 95.918 479.648 95.918C478.712 95.918 477.974 96.194 477.434 96.746C476.894 97.286 476.624 98.066 476.624 99.086V104H474.896V90.644H476.624V95.81C476.984 95.354 477.452 95 478.028 94.748C478.616 94.496 479.27 94.37 479.99 94.37ZM487.58 101.642C487.916 101.642 488.192 101.762 488.408 102.002C488.636 102.23 488.75 102.518 488.75 102.866C488.75 103.046 488.726 103.22 488.678 103.388C488.642 103.556 488.564 103.814 488.444 104.162L487.598 106.664H486.464L487.13 103.982C486.902 103.898 486.716 103.76 486.572 103.568C486.44 103.364 486.374 103.13 486.374 102.866C486.374 102.506 486.488 102.212 486.716 101.984C486.944 101.756 487.232 101.642 487.58 101.642ZM138.392 118.966H134.072V117.4H144.494V118.966H140.174V130H138.392V118.966ZM151.368 117.4C153 117.4 154.284 117.79 155.22 118.57C156.156 119.35 156.624 120.424 156.624 121.792C156.624 123.16 156.156 124.234 155.22 125.014C154.284 125.794 153 126.184 151.368 126.184H148.254V130H146.454V117.4H151.368ZM151.314 124.618C152.454 124.618 153.324 124.378 153.924 123.898C154.524 123.406 154.824 122.704 154.824 121.792C154.824 120.88 154.524 120.184 153.924 119.704C153.324 119.212 152.454 118.966 151.314 118.966H148.254V124.618H151.314ZM159.097 130.108C158.761 130.108 158.473 129.994 158.233 129.766C157.993 129.526 157.873 129.226 157.873 128.866C157.873 128.518 157.993 128.23 158.233 128.002C158.473 127.762 158.761 127.642 159.097 127.642C159.433 127.642 159.715 127.756 159.943 127.984C160.171 128.212 160.285 128.506 160.285 128.866C160.285 129.226 160.165 129.526 159.925 129.766C159.697 129.994 159.421 130.108 159.097 130.108ZM178.683 117.4V130H176.883V124.384H169.647V130H167.847V117.4H169.647V122.818H176.883V117.4H178.683ZM186.288 130.108C185.34 130.108 184.488 129.898 183.732 129.478C182.976 129.058 182.382 128.482 181.95 127.75C181.53 127.006 181.32 126.166 181.32 125.23C181.32 124.294 181.53 123.46 181.95 122.728C182.382 121.984 182.976 121.408 183.732 121C184.488 120.58 185.34 120.37 186.288 120.37C187.236 120.37 188.082 120.58 188.826 121C189.582 121.408 190.17 121.984 190.59 122.728C191.022 123.46 191.238 124.294 191.238 125.23C191.238 126.166 191.022 127.006 190.59 127.75C190.17 128.482 189.582 129.058 188.826 129.478C188.082 129.898 187.236 130.108 186.288 130.108ZM186.288 128.596C186.9 128.596 187.446 128.458 187.926 128.182C188.418 127.894 188.802 127.498 189.078 126.994C189.354 126.478 189.492 125.89 189.492 125.23C189.492 124.57 189.354 123.988 189.078 123.484C188.802 122.968 188.418 122.572 187.926 122.296C187.446 122.02 186.9 121.882 186.288 121.882C185.676 121.882 185.124 122.02 184.632 122.296C184.152 122.572 183.768 122.968 183.48 123.484C183.204 123.988 183.066 124.57 183.066 125.23C183.066 125.89 183.204 126.478 183.48 126.994C183.768 127.498 184.152 127.894 184.632 128.182C185.124 128.458 185.676 128.596 186.288 128.596ZM187.908 119.074L186.27 118.066L184.632 119.074H183.048L185.46 117.274H187.08L189.492 119.074H187.908ZM186.468 115.456H188.43L190.536 117.49H189.132L186.468 115.456ZM204.348 130.144C203.088 130.144 201.948 129.868 200.928 129.316C199.92 128.752 199.128 127.984 198.552 127.012C197.976 126.028 197.688 124.924 197.688 123.7C197.688 122.476 197.976 121.378 198.552 120.406C199.128 119.422 199.926 118.654 200.946 118.102C201.966 117.538 203.106 117.256 204.366 117.256C205.35 117.256 206.25 117.424 207.066 117.76C207.882 118.084 208.578 118.57 209.154 119.218L207.984 120.352C207.036 119.356 205.854 118.858 204.438 118.858C203.502 118.858 202.656 119.068 201.9 119.488C201.144 119.908 200.55 120.49 200.118 121.234C199.698 121.966 199.488 122.788 199.488 123.7C199.488 124.612 199.698 125.44 200.118 126.184C200.55 126.916 201.144 127.492 201.9 127.912C202.656 128.332 203.502 128.542 204.438 128.542C205.842 128.542 207.024 128.038 207.984 127.03L209.154 128.164C208.578 128.812 207.876 129.304 207.048 129.64C206.232 129.976 205.332 130.144 204.348 130.144ZM216.564 120.37C217.776 120.37 218.736 120.724 219.444 121.432C220.164 122.128 220.524 123.154 220.524 124.51V130H218.796V124.708C218.796 123.784 218.574 123.088 218.13 122.62C217.686 122.152 217.05 121.918 216.222 121.918C215.286 121.918 214.548 122.194 214.008 122.746C213.468 123.286 213.198 124.066 213.198 125.086V130H211.47V116.644H213.198V121.81C213.558 121.354 214.026 121 214.602 120.748C215.19 120.496 215.844 120.37 216.564 120.37ZM223.722 120.46H225.45V130H223.722V120.46ZM225.684 116.734H227.88L224.856 119.074H223.236L225.684 116.734ZM245.517 130L245.499 120.82L240.945 128.47H240.117L235.563 120.874V130H233.835V117.4H235.311L240.567 126.256L245.751 117.4H247.227L247.245 130H245.517ZM250.775 120.46H252.503V130H250.775V120.46ZM251.639 118.624C251.303 118.624 251.021 118.516 250.793 118.3C250.577 118.084 250.469 117.82 250.469 117.508C250.469 117.196 250.577 116.932 250.793 116.716C251.021 116.488 251.303 116.374 251.639 116.374C251.975 116.374 252.251 116.482 252.467 116.698C252.695 116.902 252.809 117.16 252.809 117.472C252.809 117.796 252.695 118.072 252.467 118.3C252.251 118.516 251.975 118.624 251.639 118.624ZM260.896 120.37C262.108 120.37 263.068 120.724 263.776 121.432C264.496 122.128 264.856 123.154 264.856 124.51V130H263.128V124.708C263.128 123.784 262.906 123.088 262.462 122.62C262.018 122.152 261.382 121.918 260.554 121.918C259.618 121.918 258.88 122.194 258.34 122.746C257.8 123.286 257.53 124.066 257.53 125.086V130H255.802V120.46H257.458V121.9C257.806 121.408 258.274 121.03 258.862 120.766C259.462 120.502 260.14 120.37 260.896 120.37ZM273.148 120.37C274.36 120.37 275.32 120.724 276.028 121.432C276.748 122.128 277.108 123.154 277.108 124.51V130H275.38V124.708C275.38 123.784 275.158 123.088 274.714 122.62C274.27 122.152 273.634 121.918 272.806 121.918C271.87 121.918 271.132 122.194 270.592 122.746C270.052 123.286 269.782 124.066 269.782 125.086V130H268.054V116.644H269.782V121.81C270.142 121.354 270.61 121 271.186 120.748C271.774 120.496 272.428 120.37 273.148 120.37Z" fill="#23221F"/>
<defs>
<linearGradient id="paint0_linear_158_78" x1="78.8968" y1="102.619" x2="78.8968" y2="40.8487" gradientUnits="userSpaceOnUse">
<stop stop-color="#FF455E"/>
<stop offset="1" stop-color="#FF919F"/>
</linearGradient>
<clipPath id="clip0_158_78">
<rect width="62" height="62" fill="white" transform="translate(48 51)"/>
</clipPath>
<clipPath id="clip1_158_78">
<rect width="45.2728" height="53.1429" fill="white" transform="translate(56.2607 51)"/>
</clipPath>
</defs>
</svg>
