<svg width="539" height="205" viewBox="0 0 539 205" fill="none" xmlns="http://www.w3.org/2000/svg">
<path d="M43.5713 205C19.5227 205 0 184.377 0 159.052L0 117.948C0 92.5874 19.5565 72 43.5713 72H495.429C519.477 72 539 92.623 539 117.948L539 159.052C539 184.413 519.444 205 495.429 205H43.5713Z" fill="#FFCA7B"/>
<path d="M43.5713 189C19.5227 189 0 166.399 0 138.644V50.3556C0 22.5624 19.5565 0 43.5713 0H495.429C519.477 0 539 22.6014 539 50.3556V138.644C539 166.438 519.444 189 495.429 189H43.5713Z" fill="#FDE8B3"/>
<path d="M496.765 177L42.2387 176.023C25.5228 176.023 12.0005 159.475 12.0005 139.111L12 48.9121C12 28.5068 25.5563 12 42.2382 12H496.761C513.477 12 526.999 28.5482 526.999 48.9121L527 139.111C527 159.516 513.481 177 496.765 177Z" fill="#FFF6D4"/>
<path d="M496.762 177H42.2382C25.5223 177 12 161.847 12 143.2L12 45.8005C12 27.1153 25.5563 12 42.2383 12H496.762C513.478 12 527 27.1533 527 45.8005L527 143.2C527 161.885 513.478 177 496.762 177Z" stroke="#FFB489" stroke-width="3" stroke-miterlimit="2.61313" stroke-linecap="round" stroke-dasharray="10 10"/>
<path d="M148.856 86.384V89H136.256V72.2H148.52V74.816H139.376V79.184H147.488V81.752H139.376V86.384H148.856ZM168.222 76.04C169.838 76.04 171.118 76.512 172.062 77.456C173.006 78.384 173.478 79.784 173.478 81.656V89H170.478V82.04C170.478 80.92 170.23 80.08 169.734 79.52C169.238 78.944 168.526 78.656 167.598 78.656C166.59 78.656 165.782 78.992 165.174 79.664C164.566 80.32 164.262 81.264 164.262 82.496V89H161.262V82.04C161.262 80.92 161.014 80.08 160.518 79.52C160.022 78.944 159.31 78.656 158.382 78.656C157.358 78.656 156.542 78.984 155.934 79.64C155.342 80.296 155.046 81.248 155.046 82.496V89H152.046V76.184H154.902V77.816C155.382 77.24 155.982 76.8 156.702 76.496C157.422 76.192 158.222 76.04 159.102 76.04C160.062 76.04 160.91 76.224 161.646 76.592C162.398 76.944 162.99 77.472 163.422 78.176C163.95 77.504 164.63 76.984 165.462 76.616C166.294 76.232 167.214 76.04 168.222 76.04ZM182.208 76.04C184.096 76.04 185.536 76.496 186.528 77.408C187.536 78.304 188.04 79.664 188.04 81.488V89H185.208V87.44C184.84 88 184.312 88.432 183.624 88.736C182.952 89.024 182.136 89.168 181.176 89.168C180.216 89.168 179.376 89.008 178.656 88.688C177.936 88.352 177.376 87.896 176.976 87.32C176.592 86.728 176.4 86.064 176.4 85.328C176.4 84.176 176.824 83.256 177.672 82.568C178.536 81.864 179.888 81.512 181.728 81.512H185.04V81.32C185.04 80.424 184.768 79.736 184.224 79.256C183.696 78.776 182.904 78.536 181.848 78.536C181.128 78.536 180.416 78.648 179.712 78.872C179.024 79.096 178.44 79.408 177.96 79.808L176.784 77.624C177.456 77.112 178.264 76.72 179.208 76.448C180.152 76.176 181.152 76.04 182.208 76.04ZM181.8 86.984C182.552 86.984 183.216 86.816 183.792 86.48C184.384 86.128 184.8 85.632 185.04 84.992V83.504H181.944C180.216 83.504 179.352 84.072 179.352 85.208C179.352 85.752 179.568 86.184 180 86.504C180.432 86.824 181.032 86.984 181.8 86.984ZM191.89 76.184H194.89V89H191.89V76.184ZM193.402 74.072C192.858 74.072 192.402 73.904 192.034 73.568C191.666 73.216 191.482 72.784 191.482 72.272C191.482 71.76 191.666 71.336 192.034 71C192.402 70.648 192.858 70.472 193.402 70.472C193.946 70.472 194.402 70.64 194.77 70.976C195.138 71.296 195.322 71.704 195.322 72.2C195.322 72.728 195.138 73.176 194.77 73.544C194.418 73.896 193.962 74.072 193.402 74.072ZM198.827 71.192H201.827V89H198.827V71.192ZM206.725 80.024C206.181 80.024 205.717 79.84 205.333 79.472C204.949 79.088 204.757 78.608 204.757 78.032C204.757 77.44 204.941 76.96 205.309 76.592C205.693 76.224 206.165 76.04 206.725 76.04C207.285 76.04 207.749 76.224 208.117 76.592C208.501 76.96 208.693 77.44 208.693 78.032C208.693 78.608 208.501 79.088 208.117 79.472C207.733 79.84 207.269 80.024 206.725 80.024ZM206.725 89.168C206.181 89.168 205.717 88.984 205.333 88.616C204.949 88.232 204.757 87.752 204.757 87.176C204.757 86.584 204.941 86.104 205.309 85.736C205.693 85.368 206.165 85.184 206.725 85.184C207.285 85.184 207.749 85.368 208.117 85.736C208.501 86.104 208.693 86.584 208.693 87.176C208.693 87.752 208.501 88.232 208.117 88.616C207.733 88.984 207.269 89.168 206.725 89.168Z" fill="#12265A"/>
<path opacity="0.7" d="M135.638 112.46H137.366V122H135.638V112.46ZM136.502 110.624C136.166 110.624 135.884 110.516 135.656 110.3C135.44 110.084 135.332 109.82 135.332 109.508C135.332 109.196 135.44 108.932 135.656 108.716C135.884 108.488 136.166 108.374 136.502 108.374C136.838 108.374 137.114 108.482 137.33 108.698C137.558 108.902 137.672 109.16 137.672 109.472C137.672 109.796 137.558 110.072 137.33 110.3C137.114 110.516 136.838 110.624 136.502 110.624ZM145.759 112.37C146.971 112.37 147.931 112.724 148.639 113.432C149.359 114.128 149.719 115.154 149.719 116.51V122H147.991V116.708C147.991 115.784 147.769 115.088 147.325 114.62C146.881 114.152 146.245 113.918 145.417 113.918C144.481 113.918 143.743 114.194 143.203 114.746C142.663 115.286 142.393 116.066 142.393 117.086V122H140.665V112.46H142.321V113.9C142.669 113.408 143.137 113.03 143.725 112.766C144.325 112.502 145.003 112.37 145.759 112.37ZM161.184 112.46L157.008 122H155.244L151.068 112.46H152.868L156.144 120.11L159.492 112.46H161.184ZM171.155 117.284C171.155 117.416 171.143 117.59 171.119 117.806H163.379C163.487 118.646 163.853 119.324 164.477 119.84C165.113 120.344 165.899 120.596 166.835 120.596C167.975 120.596 168.893 120.212 169.589 119.444L170.543 120.56C170.111 121.064 169.571 121.448 168.923 121.712C168.287 121.976 167.573 122.108 166.781 122.108C165.773 122.108 164.879 121.904 164.099 121.496C163.319 121.076 162.713 120.494 162.281 119.75C161.861 119.006 161.651 118.166 161.651 117.23C161.651 116.306 161.855 115.472 162.263 114.728C162.683 113.984 163.253 113.408 163.973 113C164.705 112.58 165.527 112.37 166.439 112.37C167.351 112.37 168.161 112.58 168.869 113C169.589 113.408 170.147 113.984 170.543 114.728C170.951 115.472 171.155 116.324 171.155 117.284ZM166.439 113.828C165.611 113.828 164.915 114.08 164.351 114.584C163.799 115.088 163.475 115.748 163.379 116.564H169.499C169.403 115.76 169.073 115.106 168.509 114.602C167.957 114.086 167.267 113.828 166.439 113.828ZM176.29 122.108C175.51 122.108 174.76 122.006 174.04 121.802C173.32 121.586 172.756 121.316 172.348 120.992L173.068 119.624C173.488 119.924 173.998 120.164 174.598 120.344C175.198 120.524 175.804 120.614 176.416 120.614C177.928 120.614 178.684 120.182 178.684 119.318C178.684 119.03 178.582 118.802 178.378 118.634C178.174 118.466 177.916 118.346 177.604 118.274C177.304 118.19 176.872 118.1 176.308 118.004C175.54 117.884 174.91 117.746 174.418 117.59C173.938 117.434 173.524 117.17 173.176 116.798C172.828 116.426 172.654 115.904 172.654 115.232C172.654 114.368 173.014 113.678 173.734 113.162C174.454 112.634 175.42 112.37 176.632 112.37C177.268 112.37 177.904 112.448 178.54 112.604C179.176 112.76 179.698 112.97 180.106 113.234L179.368 114.602C178.588 114.098 177.67 113.846 176.614 113.846C175.882 113.846 175.324 113.966 174.94 114.206C174.556 114.446 174.364 114.764 174.364 115.16C174.364 115.472 174.472 115.718 174.688 115.898C174.904 116.078 175.168 116.21 175.48 116.294C175.804 116.378 176.254 116.474 176.83 116.582C177.598 116.714 178.216 116.858 178.684 117.014C179.164 117.158 179.572 117.41 179.908 117.77C180.244 118.13 180.412 118.634 180.412 119.282C180.412 120.146 180.04 120.836 179.296 121.352C178.564 121.856 177.562 122.108 176.29 122.108ZM187.936 121.442C187.684 121.658 187.372 121.826 187 121.946C186.628 122.054 186.244 122.108 185.848 122.108C184.888 122.108 184.144 121.85 183.616 121.334C183.088 120.818 182.824 120.08 182.824 119.12V113.882H181.204V112.46H182.824V110.372H184.552V112.46H187.288V113.882H184.552V119.048C184.552 119.564 184.678 119.96 184.93 120.236C185.194 120.512 185.566 120.65 186.046 120.65C186.574 120.65 187.024 120.5 187.396 120.2L187.936 121.442ZM190.025 112.46H191.753V122H190.025V112.46ZM190.889 110.624C190.553 110.624 190.271 110.516 190.043 110.3C189.827 110.084 189.719 109.82 189.719 109.508C189.719 109.196 189.827 108.932 190.043 108.716C190.271 108.488 190.553 108.374 190.889 108.374C191.225 108.374 191.501 108.482 191.717 108.698C191.945 108.902 192.059 109.16 192.059 109.472C192.059 109.796 191.945 110.072 191.717 110.3C191.501 110.516 191.225 110.624 190.889 110.624ZM204.178 112.46V120.704C204.178 122.372 203.764 123.602 202.936 124.394C202.108 125.198 200.872 125.6 199.228 125.6C198.328 125.6 197.47 125.474 196.654 125.222C195.838 124.982 195.178 124.634 194.674 124.178L195.502 122.846C195.946 123.23 196.492 123.53 197.14 123.746C197.8 123.974 198.478 124.088 199.174 124.088C200.29 124.088 201.112 123.824 201.64 123.296C202.18 122.768 202.45 121.964 202.45 120.884V120.128C202.042 120.62 201.538 120.992 200.938 121.244C200.35 121.484 199.708 121.604 199.012 121.604C198.1 121.604 197.272 121.412 196.528 121.028C195.796 120.632 195.22 120.086 194.8 119.39C194.38 118.682 194.17 117.878 194.17 116.978C194.17 116.078 194.38 115.28 194.8 114.584C195.22 113.876 195.796 113.33 196.528 112.946C197.272 112.562 198.1 112.37 199.012 112.37C199.732 112.37 200.398 112.502 201.01 112.766C201.634 113.03 202.144 113.42 202.54 113.936V112.46H204.178ZM199.21 120.092C199.834 120.092 200.392 119.96 200.884 119.696C201.388 119.432 201.778 119.066 202.054 118.598C202.342 118.118 202.486 117.578 202.486 116.978C202.486 116.054 202.18 115.31 201.568 114.746C200.956 114.17 200.17 113.882 199.21 113.882C198.238 113.882 197.446 114.17 196.834 114.746C196.222 115.31 195.916 116.054 195.916 116.978C195.916 117.578 196.054 118.118 196.33 118.598C196.618 119.066 197.008 119.432 197.5 119.696C198.004 119.96 198.574 120.092 199.21 120.092ZM210.954 112.37C212.274 112.37 213.282 112.694 213.978 113.342C214.686 113.99 215.04 114.956 215.04 116.24V122H213.402V120.74C213.114 121.184 212.7 121.526 212.16 121.766C211.632 121.994 211.002 122.108 210.27 122.108C209.202 122.108 208.344 121.85 207.696 121.334C207.06 120.818 206.742 120.14 206.742 119.3C206.742 118.46 207.048 117.788 207.66 117.284C208.272 116.768 209.244 116.51 210.576 116.51H213.312V116.168C213.312 115.424 213.096 114.854 212.664 114.458C212.232 114.062 211.596 113.864 210.756 113.864C210.192 113.864 209.64 113.96 209.1 114.152C208.56 114.332 208.104 114.578 207.732 114.89L207.012 113.594C207.504 113.198 208.092 112.898 208.776 112.694C209.46 112.478 210.186 112.37 210.954 112.37ZM210.558 120.776C211.218 120.776 211.788 120.632 212.268 120.344C212.748 120.044 213.096 119.624 213.312 119.084V117.752H210.648C209.184 117.752 208.452 118.244 208.452 119.228C208.452 119.708 208.638 120.086 209.01 120.362C209.382 120.638 209.898 120.776 210.558 120.776ZM223.602 121.442C223.35 121.658 223.038 121.826 222.666 121.946C222.294 122.054 221.91 122.108 221.514 122.108C220.554 122.108 219.81 121.85 219.282 121.334C218.754 120.818 218.49 120.08 218.49 119.12V113.882H216.87V112.46H218.49V110.372H220.218V112.46H222.954V113.882H220.218V119.048C220.218 119.564 220.344 119.96 220.596 120.236C220.86 120.512 221.232 120.65 221.712 120.65C222.24 120.65 222.69 120.5 223.062 120.2L223.602 121.442ZM233.996 117.284C233.996 117.416 233.984 117.59 233.96 117.806H226.22C226.328 118.646 226.694 119.324 227.318 119.84C227.954 120.344 228.74 120.596 229.676 120.596C230.816 120.596 231.734 120.212 232.43 119.444L233.384 120.56C232.952 121.064 232.412 121.448 231.764 121.712C231.128 121.976 230.414 122.108 229.622 122.108C228.614 122.108 227.72 121.904 226.94 121.496C226.16 121.076 225.554 120.494 225.122 119.75C224.702 119.006 224.492 118.166 224.492 117.23C224.492 116.306 224.696 115.472 225.104 114.728C225.524 113.984 226.094 113.408 226.814 113C227.546 112.58 228.368 112.37 229.28 112.37C230.192 112.37 231.002 112.58 231.71 113C232.43 113.408 232.988 113.984 233.384 114.728C233.792 115.472 233.996 116.324 233.996 117.284ZM229.28 113.828C228.452 113.828 227.756 114.08 227.192 114.584C226.64 115.088 226.316 115.748 226.22 116.564H232.34C232.244 115.76 231.914 115.106 231.35 114.602C230.798 114.086 230.108 113.828 229.28 113.828ZM244.118 109.274C245.738 109.274 247.184 109.61 248.456 110.282C249.728 110.942 250.718 111.872 251.426 113.072C252.146 114.272 252.506 115.64 252.506 117.176C252.506 118.712 252.224 119.918 251.66 120.794C251.096 121.67 250.31 122.108 249.302 122.108C248.726 122.108 248.246 121.964 247.862 121.676C247.49 121.376 247.25 120.95 247.142 120.398C246.782 120.95 246.308 121.376 245.72 121.676C245.144 121.964 244.478 122.108 243.722 122.108C242.882 122.108 242.126 121.91 241.454 121.514C240.782 121.118 240.254 120.572 239.87 119.876C239.498 119.168 239.312 118.37 239.312 117.482C239.312 116.606 239.498 115.82 239.87 115.124C240.254 114.416 240.782 113.87 241.454 113.486C242.126 113.09 242.882 112.892 243.722 112.892C244.418 112.892 245.048 113.024 245.612 113.288C246.176 113.54 246.644 113.918 247.016 114.422V112.964H248.582V119.444C248.582 119.888 248.678 120.218 248.87 120.434C249.062 120.638 249.308 120.74 249.608 120.74C250.136 120.74 250.544 120.434 250.832 119.822C251.132 119.198 251.282 118.322 251.282 117.194C251.282 115.862 250.982 114.692 250.382 113.684C249.782 112.664 248.936 111.872 247.844 111.308C246.764 110.744 245.522 110.462 244.118 110.462C242.702 110.462 241.448 110.756 240.356 111.344C239.276 111.932 238.436 112.754 237.836 113.81C237.236 114.866 236.936 116.072 236.936 117.428C236.936 118.796 237.23 120.008 237.818 121.064C238.418 122.12 239.252 122.942 240.32 123.53C241.4 124.13 242.642 124.43 244.046 124.43C244.634 124.43 245.234 124.364 245.846 124.232C246.458 124.1 247.016 123.902 247.52 123.638L247.916 124.79C247.388 125.066 246.776 125.276 246.08 125.42C245.384 125.564 244.706 125.636 244.046 125.636C242.402 125.636 240.938 125.282 239.654 124.574C238.382 123.878 237.392 122.906 236.684 121.658C235.976 120.41 235.622 119 235.622 117.428C235.622 115.856 235.976 114.452 236.684 113.216C237.404 111.98 238.406 111.014 239.69 110.318C240.986 109.622 242.462 109.274 244.118 109.274ZM243.974 120.704C244.562 120.704 245.084 120.572 245.54 120.308C246.008 120.044 246.374 119.672 246.638 119.192C246.914 118.7 247.052 118.13 247.052 117.482C247.052 116.834 246.914 116.27 246.638 115.79C246.374 115.298 246.008 114.926 245.54 114.674C245.084 114.41 244.562 114.278 243.974 114.278C243.062 114.278 242.324 114.572 241.76 115.16C241.196 115.736 240.914 116.51 240.914 117.482C240.914 118.454 241.196 119.234 241.76 119.822C242.336 120.41 243.074 120.704 243.974 120.704ZM263.453 112.46L258.827 122.954C258.419 123.926 257.939 124.61 257.387 125.006C256.847 125.402 256.193 125.6 255.425 125.6C254.957 125.6 254.501 125.522 254.057 125.366C253.625 125.222 253.265 125.006 252.977 124.718L253.715 123.422C254.207 123.89 254.777 124.124 255.425 124.124C255.845 124.124 256.193 124.01 256.469 123.782C256.757 123.566 257.015 123.188 257.243 122.648L257.549 121.982L253.337 112.46H255.137L258.467 120.092L261.761 112.46H263.453ZM268.888 122.108C267.94 122.108 267.088 121.898 266.332 121.478C265.576 121.058 264.982 120.482 264.55 119.75C264.13 119.006 263.92 118.166 263.92 117.23C263.92 116.294 264.13 115.46 264.55 114.728C264.982 113.984 265.576 113.408 266.332 113C267.088 112.58 267.94 112.37 268.888 112.37C269.836 112.37 270.682 112.58 271.426 113C272.182 113.408 272.77 113.984 273.19 114.728C273.622 115.46 273.838 116.294 273.838 117.23C273.838 118.166 273.622 119.006 273.19 119.75C272.77 120.482 272.182 121.058 271.426 121.478C270.682 121.898 269.836 122.108 268.888 122.108ZM268.888 120.596C269.5 120.596 270.046 120.458 270.526 120.182C271.018 119.894 271.402 119.498 271.678 118.994C271.954 118.478 272.092 117.89 272.092 117.23C272.092 116.57 271.954 115.988 271.678 115.484C271.402 114.968 271.018 114.572 270.526 114.296C270.046 114.02 269.5 113.882 268.888 113.882C268.276 113.882 267.724 114.02 267.232 114.296C266.752 114.572 266.368 114.968 266.08 115.484C265.804 115.988 265.666 116.57 265.666 117.23C265.666 117.89 265.804 118.478 266.08 118.994C266.368 119.498 266.752 119.894 267.232 120.182C267.724 120.458 268.276 120.596 268.888 120.596ZM285.12 112.46V122H283.482V120.56C283.134 121.052 282.672 121.436 282.096 121.712C281.532 121.976 280.914 122.108 280.242 122.108C278.97 122.108 277.968 121.76 277.236 121.064C276.504 120.356 276.138 119.318 276.138 117.95V112.46H277.866V117.752C277.866 118.676 278.088 119.378 278.532 119.858C278.976 120.326 279.612 120.56 280.44 120.56C281.352 120.56 282.072 120.284 282.6 119.732C283.128 119.18 283.392 118.4 283.392 117.392V112.46H285.12ZM290.065 114.062C290.365 113.51 290.809 113.09 291.397 112.802C291.985 112.514 292.699 112.37 293.539 112.37V114.044C293.443 114.032 293.311 114.026 293.143 114.026C292.207 114.026 291.469 114.308 290.929 114.872C290.401 115.424 290.137 116.216 290.137 117.248V122H288.409V112.46H290.065V114.062ZM295.022 116.312H299.864V117.806H295.022V116.312ZM305.261 122.108C304.481 122.108 303.731 122.006 303.011 121.802C302.291 121.586 301.727 121.316 301.319 120.992L302.039 119.624C302.459 119.924 302.969 120.164 303.569 120.344C304.169 120.524 304.775 120.614 305.387 120.614C306.899 120.614 307.655 120.182 307.655 119.318C307.655 119.03 307.553 118.802 307.349 118.634C307.145 118.466 306.887 118.346 306.575 118.274C306.275 118.19 305.843 118.1 305.279 118.004C304.511 117.884 303.881 117.746 303.389 117.59C302.909 117.434 302.495 117.17 302.147 116.798C301.799 116.426 301.625 115.904 301.625 115.232C301.625 114.368 301.985 113.678 302.705 113.162C303.425 112.634 304.391 112.37 305.603 112.37C306.239 112.37 306.875 112.448 307.511 112.604C308.147 112.76 308.669 112.97 309.077 113.234L308.339 114.602C307.559 114.098 306.641 113.846 305.585 113.846C304.853 113.846 304.295 113.966 303.911 114.206C303.527 114.446 303.335 114.764 303.335 115.16C303.335 115.472 303.443 115.718 303.659 115.898C303.875 116.078 304.139 116.21 304.451 116.294C304.775 116.378 305.225 116.474 305.801 116.582C306.569 116.714 307.187 116.858 307.655 117.014C308.135 117.158 308.543 117.41 308.879 117.77C309.215 118.13 309.383 118.634 309.383 119.282C309.383 120.146 309.011 120.836 308.267 121.352C307.535 121.856 306.533 122.108 305.261 122.108ZM311.542 112.46H313.27V122H311.542V112.46ZM312.406 110.624C312.07 110.624 311.788 110.516 311.56 110.3C311.344 110.084 311.236 109.82 311.236 109.508C311.236 109.196 311.344 108.932 311.56 108.716C311.788 108.488 312.07 108.374 312.406 108.374C312.742 108.374 313.018 108.482 313.234 108.698C313.462 108.902 313.576 109.16 313.576 109.472C313.576 109.796 313.462 110.072 313.234 110.3C313.018 110.516 312.742 110.624 312.406 110.624ZM321.934 121.442C321.682 121.658 321.37 121.826 320.998 121.946C320.626 122.054 320.242 122.108 319.846 122.108C318.886 122.108 318.142 121.85 317.614 121.334C317.086 120.818 316.822 120.08 316.822 119.12V113.882H315.202V112.46H316.822V110.372H318.55V112.46H321.286V113.882H318.55V119.048C318.55 119.564 318.676 119.96 318.928 120.236C319.192 120.512 319.564 120.65 320.044 120.65C320.572 120.65 321.022 120.5 321.394 120.2L321.934 121.442ZM332.328 117.284C332.328 117.416 332.316 117.59 332.292 117.806H324.552C324.66 118.646 325.026 119.324 325.65 119.84C326.286 120.344 327.072 120.596 328.008 120.596C329.148 120.596 330.066 120.212 330.762 119.444L331.716 120.56C331.284 121.064 330.744 121.448 330.096 121.712C329.46 121.976 328.746 122.108 327.954 122.108C326.946 122.108 326.052 121.904 325.272 121.496C324.492 121.076 323.886 120.494 323.454 119.75C323.034 119.006 322.824 118.166 322.824 117.23C322.824 116.306 323.028 115.472 323.436 114.728C323.856 113.984 324.426 113.408 325.146 113C325.878 112.58 326.7 112.37 327.612 112.37C328.524 112.37 329.334 112.58 330.042 113C330.762 113.408 331.32 113.984 331.716 114.728C332.124 115.472 332.328 116.324 332.328 117.284ZM327.612 113.828C326.784 113.828 326.088 114.08 325.524 114.584C324.972 115.088 324.648 115.748 324.552 116.564H330.672C330.576 115.76 330.246 115.106 329.682 114.602C329.13 114.086 328.44 113.828 327.612 113.828ZM335.142 122.108C334.806 122.108 334.518 121.994 334.278 121.766C334.038 121.526 333.918 121.226 333.918 120.866C333.918 120.518 334.038 120.23 334.278 120.002C334.518 119.762 334.806 119.642 335.142 119.642C335.478 119.642 335.76 119.756 335.988 119.984C336.216 120.212 336.33 120.506 336.33 120.866C336.33 121.226 336.21 121.526 335.97 121.766C335.742 121.994 335.466 122.108 335.142 122.108ZM342.753 122.108C341.781 122.108 340.911 121.898 340.143 121.478C339.387 121.058 338.793 120.482 338.361 119.75C337.929 119.006 337.713 118.166 337.713 117.23C337.713 116.294 337.929 115.46 338.361 114.728C338.793 113.984 339.387 113.408 340.143 113C340.911 112.58 341.781 112.37 342.753 112.37C343.617 112.37 344.385 112.544 345.057 112.892C345.741 113.24 346.269 113.744 346.641 114.404L345.327 115.25C345.027 114.794 344.655 114.452 344.211 114.224C343.767 113.996 343.275 113.882 342.735 113.882C342.111 113.882 341.547 114.02 341.043 114.296C340.551 114.572 340.161 114.968 339.873 115.484C339.597 115.988 339.459 116.57 339.459 117.23C339.459 117.902 339.597 118.496 339.873 119.012C340.161 119.516 340.551 119.906 341.043 120.182C341.547 120.458 342.111 120.596 342.735 120.596C343.275 120.596 343.767 120.482 344.211 120.254C344.655 120.026 345.027 119.684 345.327 119.228L346.641 120.056C346.269 120.716 345.741 121.226 345.057 121.586C344.385 121.934 343.617 122.108 342.753 122.108ZM352.824 122.108C351.876 122.108 351.024 121.898 350.268 121.478C349.512 121.058 348.918 120.482 348.486 119.75C348.066 119.006 347.856 118.166 347.856 117.23C347.856 116.294 348.066 115.46 348.486 114.728C348.918 113.984 349.512 113.408 350.268 113C351.024 112.58 351.876 112.37 352.824 112.37C353.772 112.37 354.618 112.58 355.362 113C356.118 113.408 356.706 113.984 357.126 114.728C357.558 115.46 357.774 116.294 357.774 117.23C357.774 118.166 357.558 119.006 357.126 119.75C356.706 120.482 356.118 121.058 355.362 121.478C354.618 121.898 353.772 122.108 352.824 122.108ZM352.824 120.596C353.436 120.596 353.982 120.458 354.462 120.182C354.954 119.894 355.338 119.498 355.614 118.994C355.89 118.478 356.028 117.89 356.028 117.23C356.028 116.57 355.89 115.988 355.614 115.484C355.338 114.968 354.954 114.572 354.462 114.296C353.982 114.02 353.436 113.882 352.824 113.882C352.212 113.882 351.66 114.02 351.168 114.296C350.688 114.572 350.304 114.968 350.016 115.484C349.74 115.988 349.602 116.57 349.602 117.23C349.602 117.89 349.74 118.478 350.016 118.994C350.304 119.498 350.688 119.894 351.168 120.182C351.66 120.458 352.212 120.596 352.824 120.596ZM372.097 112.37C373.297 112.37 374.245 112.718 374.941 113.414C375.649 114.11 376.003 115.142 376.003 116.51V122H374.275V116.708C374.275 115.784 374.059 115.088 373.627 114.62C373.207 114.152 372.601 113.918 371.809 113.918C370.933 113.918 370.237 114.194 369.721 114.746C369.205 115.286 368.947 116.066 368.947 117.086V122H367.219V116.708C367.219 115.784 367.003 115.088 366.571 114.62C366.151 114.152 365.545 113.918 364.753 113.918C363.877 113.918 363.181 114.194 362.665 114.746C362.149 115.286 361.891 116.066 361.891 117.086V122H360.163V112.46H361.819V113.882C362.167 113.39 362.623 113.018 363.187 112.766C363.751 112.502 364.393 112.37 365.113 112.37C365.857 112.37 366.517 112.52 367.093 112.82C367.669 113.12 368.113 113.558 368.425 114.134C368.785 113.582 369.283 113.15 369.919 112.838C370.567 112.526 371.293 112.37 372.097 112.37Z" fill="#23221F"/>
<g clip-path="url(#clip0_158_79)">
<path d="M109.957 76.5193C99.243 73.9216 90.3499 74.1768 79 74.1768C67.6502 74.1768 58.757 73.9217 48.043 76.5194C48.015 76.7814 48 77.0473 48 77.3168V104.683C48 108.797 51.3347 112.131 55.4481 112.131H102.552C106.665 112.131 110 108.797 110 104.683V77.3168C110 77.0473 109.985 76.7814 109.957 76.5193Z" fill="url(#paint0_linear_158_79)"/>
<path d="M83.1203 97.577C82.7571 96.6299 81.7833 96.0539 80.7816 96.2132C77.8754 96.6751 74.828 96 72.3353 94.1869L69.5137 92.1349L66.3203 95.1575L69.6595 97.5861C72.3459 99.5399 75.5686 100.654 78.8903 100.677C79.7534 100.683 80.6067 100.618 81.4444 100.487C82.8004 100.273 83.6115 98.8587 83.1203 97.577Z" fill="#04A5DE"/>
<path d="M109.957 76.5193C98.471 77.0419 79 83.1565 79 83.1565L107.564 110.192C109.061 108.83 110 106.866 110 104.683V77.3168C110 77.0473 109.985 76.7814 109.957 76.5193Z" fill="url(#paint1_linear_158_79)"/>
<path d="M48.043 76.5193C59.5291 77.0419 79 83.1565 79 83.1565L50.4356 110.192C48.9392 108.83 48 106.866 48 104.683V77.3168C48 77.0473 48.015 76.7814 48.043 76.5193Z" fill="url(#paint2_linear_158_79)"/>
<path d="M58.9306 99.1942C59.753 100.052 61.1137 100.085 61.9768 99.2685L69.5139 92.1348L48.0434 76.5195C48.0153 76.7815 48 77.0475 48 77.3168V81.833L62.7645 92.5711L59.0055 96.1289C58.1347 96.9531 58.1012 98.3285 58.9306 99.1942Z" fill="#04A5DE"/>
<path d="M102.552 69.8687H55.448C51.604 69.8687 48.441 72.781 48.043 76.5194L72.3355 94.1871C76.3087 97.0767 81.6913 97.0767 85.6645 94.1871L109.957 76.5194C109.559 72.7809 106.396 69.8687 102.552 69.8687Z" fill="url(#paint3_linear_158_79)"/>
<path d="M68.146 85.3274C69.1648 85.3274 69.9908 84.6637 69.9908 83.8449C69.9908 83.0262 69.1648 82.3625 68.146 82.3625C67.1272 82.3625 66.3013 83.0262 66.3013 83.8449C66.3013 84.6637 67.1272 85.3274 68.146 85.3274Z" fill="#EAADCD"/>
<path d="M89.8545 85.3274C90.8733 85.3274 91.6993 84.6637 91.6993 83.8449C91.6993 83.0262 90.8733 82.3625 89.8545 82.3625C88.8357 82.3625 88.0098 83.0262 88.0098 83.8449C88.0098 84.6637 88.8357 85.3274 89.8545 85.3274Z" fill="#EAADCD"/>
<path d="M71.3079 83.8449C73.3282 83.8449 74.9659 82.2072 74.9659 80.1869C74.9659 78.1667 73.3282 76.5289 71.3079 76.5289C69.2876 76.5289 67.6499 78.1667 67.6499 80.1869C67.6499 82.2072 69.2876 83.8449 71.3079 83.8449Z" fill="white"/>
<path d="M86.6917 83.8449C88.7119 83.8449 90.3497 82.2072 90.3497 80.1869C90.3497 78.1667 88.7119 76.5289 86.6917 76.5289C84.6714 76.5289 83.0337 78.1667 83.0337 80.1869C83.0337 82.2072 84.6714 83.8449 86.6917 83.8449Z" fill="white"/>
<path d="M71.3081 82.3671C72.5122 82.3671 73.4883 81.391 73.4883 80.187C73.4883 78.9829 72.5122 78.0068 71.3081 78.0068C70.104 78.0068 69.1279 78.9829 69.1279 80.187C69.1279 81.391 70.104 82.3671 71.3081 82.3671Z" fill="#3B3B44"/>
<path d="M86.6919 82.3671C87.896 82.3671 88.8721 81.391 88.8721 80.187C88.8721 78.9829 87.896 78.0068 86.6919 78.0068C85.4878 78.0068 84.5117 78.9829 84.5117 80.187C84.5117 81.391 85.4878 82.3671 86.6919 82.3671Z" fill="#3B3B44"/>
<path d="M79.0001 83.9613C78.3519 83.9613 77.7039 83.7162 77.1752 83.2259C76.9252 82.994 76.9103 82.6034 77.1423 82.3532C77.3742 82.1031 77.765 82.0882 78.015 82.3203C78.5952 82.8582 79.4053 82.8582 79.9854 82.3203C80.2354 82.0884 80.6262 82.1031 80.8582 82.3532C81.0899 82.6033 81.0753 82.9939 80.8252 83.2259C80.2963 83.7161 79.6483 83.9613 79.0001 83.9613Z" fill="#3B3B44"/>
<path d="M95.6998 74.809H94.3307C93.6486 74.809 93.0957 74.2561 93.0957 73.574C93.0957 72.8919 93.6486 72.339 94.3307 72.339H95.6998C96.3819 72.339 96.9349 72.8919 96.9349 73.574C96.9349 74.2561 96.3819 74.809 95.6998 74.809Z" fill="#DFF7FA"/>
<path d="M105.31 76.0147C104.977 76.0147 104.645 75.8806 104.401 75.6161C103.929 75.1032 103.255 74.8089 102.552 74.8089H100.747C100.065 74.8089 99.5117 74.256 99.5117 73.5739C99.5117 72.8918 100.065 72.3389 100.747 72.3389H102.552C103.943 72.3389 105.28 72.9235 106.218 73.9432C106.68 74.445 106.648 75.2263 106.146 75.6883C105.909 75.9069 105.609 76.0147 105.31 76.0147Z" fill="#DFF7FA"/>
</g>
<defs>
<linearGradient id="paint0_linear_158_79" x1="79.0024" y1="82.8784" x2="79.0024" y2="108.412" gradientUnits="userSpaceOnUse">
<stop stop-color="#53AAE6"/>
<stop offset="1" stop-color="#A4D2F0"/>
</linearGradient>
<linearGradient id="paint1_linear_158_79" x1="93.9472" y1="93.3534" x2="116.274" y2="93.3534" gradientUnits="userSpaceOnUse">
<stop stop-color="#53AAE6"/>
<stop offset="1" stop-color="#A4D2F0"/>
</linearGradient>
<linearGradient id="paint2_linear_158_79" x1="64.0499" y1="93.3534" x2="41.7228" y2="93.3534" gradientUnits="userSpaceOnUse">
<stop stop-color="#53AAE6"/>
<stop offset="1" stop-color="#A4D2F0"/>
</linearGradient>
<linearGradient id="paint3_linear_158_79" x1="79.0024" y1="56.5794" x2="79.0024" y2="88.0795" gradientUnits="userSpaceOnUse">
<stop stop-color="#74D2E8"/>
<stop offset="1" stop-color="#BAEAF5"/>
</linearGradient>
<clipPath id="clip0_158_79">
<rect width="62" height="62" fill="white" transform="translate(48 60)"/>
</clipPath>
</defs>
</svg>
