<svg width="539" height="205" viewBox="0 0 539 205" fill="none" xmlns="http://www.w3.org/2000/svg">
<path d="M43.5713 205C19.5227 205 0 184.377 0 159.052L0 117.948C0 92.5874 19.5565 72 43.5713 72H495.429C519.477 72 539 92.623 539 117.948L539 159.052C539 184.413 519.444 205 495.429 205H43.5713Z" fill="#FFCA7B"/>
<path d="M43.5713 189C19.5227 189 0 166.399 0 138.644V50.3556C0 22.5624 19.5565 0 43.5713 0H495.429C519.477 0 539 22.6014 539 50.3556V138.644C539 166.438 519.444 189 495.429 189H43.5713Z" fill="#FDE8B3"/>
<path d="M496.765 177L42.2387 176.023C25.5228 176.023 12.0005 159.475 12.0005 139.111L12 48.9121C12 28.5068 25.5563 12 42.2382 12H496.761C513.477 12 526.999 28.5482 526.999 48.9121L527 139.111C527 159.516 513.481 177 496.765 177Z" fill="#FFF6D4"/>
<path d="M496.762 177H42.2382C25.5223 177 12 161.847 12 143.2L12 45.8005C12 27.1153 25.5563 12 42.2383 12H496.762C513.478 12 527 27.1533 527 45.8005L527 143.2C527 161.885 513.478 177 496.762 177Z" stroke="#FFB489" stroke-width="3" stroke-miterlimit="2.61313" stroke-linecap="round" stroke-dasharray="10 10"/>
<g clip-path="url(#clip0_158_91)">
<path d="M103.143 114.747C100.727 110.054 98.6836 107.61 96.0018 104.928C93.3199 102.246 90.8754 100.203 86.183 97.7868L83.516 100.454C81.0727 102.897 76.2152 99.9341 73.6409 97.3596C71.0664 94.7852 68.1035 89.9276 70.5467 87.4844L73.2138 84.8174C70.7976 80.1249 68.7544 77.6804 66.0725 74.9987C63.3907 72.317 60.9462 70.2736 56.2538 67.8575L53.5866 70.5244C42.9562 81.155 52.8651 98.9127 62.4764 108.524C72.0878 118.135 89.8456 128.044 100.476 117.414L103.143 114.747Z" fill="url(#paint0_linear_158_91)"/>
<path d="M102.987 111.429C102.024 110.455 100.452 110.451 99.4838 111.419L96.9828 113.921C94.8703 116.033 92.3039 117.06 89.1363 117.06C85.7498 117.06 82.0162 115.889 78.3866 114.068C77.2253 113.485 75.811 113.902 75.1504 115.021C74.4233 116.252 74.8862 117.846 76.1646 118.486C84.5843 122.704 93.8956 123.994 100.476 117.414L102.977 114.913C103.938 113.952 103.942 112.396 102.987 111.429Z" fill="#E20000"/>
<path d="M74.7844 72.2924L68.7785 66.2866C65.7536 63.2617 60.8493 63.2617 57.8244 66.2866L56.2534 67.8575C58.0291 71.3027 60.7022 75.0052 63.3839 77.687C66.0656 80.3687 69.7682 83.0418 73.2135 84.8175L74.7844 83.2467C77.8093 80.2216 77.8093 75.3173 74.7844 72.2924Z" fill="#FFD000"/>
<path d="M98.7081 96.216L104.714 102.222C107.739 105.247 107.739 110.151 104.714 113.176L103.143 114.747C99.6979 112.971 95.9953 110.298 93.3136 107.616C90.6319 104.935 87.9589 101.232 86.1831 97.7869L87.754 96.216C90.7789 93.191 95.6832 93.1911 98.7081 96.216Z" fill="#FFD000"/>
<path d="M99.4837 111.419L98.7866 112.117C100.218 113.104 101.697 114.001 103.132 114.741C103.934 113.775 103.887 112.34 102.987 111.429C102.024 110.455 100.452 110.451 99.4837 111.419Z" fill="#EFC534"/>
<path d="M105.592 83.2856C105.592 73.4277 97.5723 65.4078 87.7145 65.4077C86.2213 65.4076 85.0107 64.197 85.0107 62.7038C85.0109 61.2106 86.2213 60 87.7147 60C100.554 60.0002 111 70.4459 111 83.2854C111 84.7788 109.79 85.9894 108.296 85.9892C106.803 85.9894 105.592 84.7789 105.592 83.2856Z" fill="#FFD000"/>
<path d="M95.319 83.2852C95.319 79.0923 91.908 75.6812 87.715 75.6812C86.2218 75.6812 85.0115 74.4707 85.0112 72.9773C85.0114 71.4841 86.2218 70.2735 87.7151 70.2735C94.8895 70.2736 100.726 76.1106 100.727 83.2849C100.727 84.7783 99.5161 85.9889 98.0228 85.9887C96.5298 85.9891 95.319 84.7785 95.319 83.2852Z" fill="#FFD000"/>
<path d="M60.5197 70.94C60.2036 70.94 59.8875 70.8195 59.6464 70.5783C59.1641 70.096 59.1641 69.314 59.6464 68.8315L60.0081 68.4698C60.5627 67.9154 61.2501 67.5076 61.9962 67.2906C62.651 67.1 63.3365 67.4766 63.5269 68.1316C63.7175 68.7866 63.3409 69.4721 62.686 69.6625C62.333 69.7651 62.0198 69.9515 61.7548 70.2165L61.393 70.5783C61.1518 70.8195 60.8357 70.94 60.5197 70.94Z" fill="#FFFDE3"/>
<path d="M53.9373 79.1091C53.8069 79.1091 53.6744 79.0882 53.5439 79.0445C52.8974 78.8274 52.5491 78.1272 52.7662 77.4805C53.3681 75.6883 54.3506 74.1271 55.7699 72.7077L56.0521 72.4254C56.5344 71.9431 57.3164 71.943 57.7987 72.4252C58.2811 72.9075 58.2811 73.6894 57.799 74.1718L57.5166 74.4542C56.3732 75.5976 55.5854 76.8446 55.1079 78.2668C54.9346 78.783 54.4533 79.1091 53.9373 79.1091Z" fill="white"/>
</g>
<path d="M137.496 66.2H144.84C146.632 66.2 148.224 66.552 149.616 67.256C151.008 67.944 152.088 68.928 152.856 70.208C153.624 71.472 154.008 72.936 154.008 74.6C154.008 76.264 153.624 77.736 152.856 79.016C152.088 80.28 151.008 81.264 149.616 81.968C148.224 82.656 146.632 83 144.84 83H137.496V66.2ZM144.696 80.36C145.928 80.36 147.008 80.128 147.936 79.664C148.88 79.184 149.6 78.512 150.096 77.648C150.608 76.768 150.864 75.752 150.864 74.6C150.864 73.448 150.608 72.44 150.096 71.576C149.6 70.696 148.88 70.024 147.936 69.56C147.008 69.08 145.928 68.84 144.696 68.84H140.616V80.36H144.696ZM135.12 73.304H145.104V75.608H135.12V73.304ZM157.031 70.184H160.031V83H157.031V70.184ZM158.543 68.072C157.999 68.072 157.543 67.904 157.175 67.568C156.807 67.216 156.623 66.784 156.623 66.272C156.623 65.76 156.807 65.336 157.175 65C157.543 64.648 157.999 64.472 158.543 64.472C159.087 64.472 159.543 64.64 159.911 64.976C160.279 65.296 160.463 65.704 160.463 66.2C160.463 66.728 160.279 67.176 159.911 67.544C159.559 67.896 159.103 68.072 158.543 68.072ZM176.016 76.664C176.016 76.872 176 77.168 175.968 77.552H165.912C166.088 78.496 166.544 79.248 167.28 79.808C168.032 80.352 168.96 80.624 170.064 80.624C171.472 80.624 172.632 80.16 173.544 79.232L175.152 81.08C174.576 81.768 173.848 82.288 172.968 82.64C172.088 82.992 171.096 83.168 169.992 83.168C168.584 83.168 167.344 82.888 166.272 82.328C165.2 81.768 164.368 80.992 163.776 80C163.2 78.992 162.912 77.856 162.912 76.592C162.912 75.344 163.192 74.224 163.752 73.232C164.328 72.224 165.12 71.44 166.128 70.88C167.136 70.32 168.272 70.04 169.536 70.04C170.784 70.04 171.896 70.32 172.872 70.88C173.864 71.424 174.632 72.2 175.176 73.208C175.736 74.2 176.016 75.352 176.016 76.664ZM169.536 72.44C168.576 72.44 167.76 72.728 167.088 73.304C166.432 73.864 166.032 74.616 165.888 75.56H173.16C173.032 74.632 172.64 73.88 171.984 73.304C171.328 72.728 170.512 72.44 169.536 72.44ZM169.464 87.872C169.048 87.872 168.704 87.744 168.432 87.488C168.16 87.232 168.024 86.888 168.024 86.456C168.024 86.04 168.16 85.688 168.432 85.4C168.704 85.128 169.048 84.992 169.464 84.992C169.88 84.992 170.224 85.128 170.496 85.4C170.768 85.688 170.904 86.04 170.904 86.456C170.904 86.888 170.768 87.232 170.496 87.488C170.224 87.744 169.88 87.872 169.464 87.872ZM171.576 68.432L169.464 66.656L167.352 68.432H164.88L168.096 65.144H170.832L174.048 68.432H171.576ZM186.17 70.04C187.786 70.04 189.082 70.512 190.058 71.456C191.034 72.4 191.522 73.8 191.522 75.656V83H188.522V76.04C188.522 74.92 188.258 74.08 187.73 73.52C187.202 72.944 186.45 72.656 185.474 72.656C184.37 72.656 183.498 72.992 182.858 73.664C182.218 74.32 181.898 75.272 181.898 76.52V83H178.898V70.184H181.754V71.84C182.25 71.248 182.874 70.8 183.626 70.496C184.378 70.192 185.226 70.04 186.17 70.04ZM209.664 82.304C209.312 82.592 208.88 82.808 208.368 82.952C207.872 83.096 207.344 83.168 206.784 83.168C205.376 83.168 204.288 82.8 203.52 82.064C202.752 81.328 202.368 80.256 202.368 78.848V72.68H200.256V70.28H202.368V67.352H205.368V70.28H208.8V72.68H205.368V78.776C205.368 79.4 205.52 79.88 205.824 80.216C206.128 80.536 206.568 80.696 207.144 80.696C207.816 80.696 208.376 80.52 208.824 80.168L209.664 82.304ZM219.404 70.04C221.02 70.04 222.316 70.512 223.292 71.456C224.268 72.4 224.756 73.8 224.756 75.656V83H221.756V76.04C221.756 74.92 221.492 74.08 220.964 73.52C220.436 72.944 219.684 72.656 218.708 72.656C217.604 72.656 216.732 72.992 216.092 73.664C215.452 74.32 215.132 75.272 215.132 76.52V83H212.132V65.192H215.132V71.672C215.628 71.144 216.236 70.744 216.956 70.472C217.692 70.184 218.508 70.04 219.404 70.04ZM234.439 83.168C233.143 83.168 231.975 82.888 230.935 82.328C229.895 81.768 229.079 80.992 228.487 80C227.911 78.992 227.623 77.856 227.623 76.592C227.623 75.328 227.911 74.2 228.487 73.208C229.079 72.216 229.895 71.44 230.935 70.88C231.975 70.32 233.143 70.04 234.439 70.04C235.751 70.04 236.927 70.32 237.967 70.88C239.007 71.44 239.815 72.216 240.391 73.208C240.983 74.2 241.279 75.328 241.279 76.592C241.279 77.856 240.983 78.992 240.391 80C239.815 80.992 239.007 81.768 237.967 82.328C236.927 82.888 235.751 83.168 234.439 83.168ZM234.439 80.6C235.543 80.6 236.455 80.232 237.175 79.496C237.895 78.76 238.255 77.792 238.255 76.592C238.255 75.392 237.895 74.424 237.175 73.688C236.455 72.952 235.543 72.584 234.439 72.584C233.335 72.584 232.423 72.952 231.703 73.688C230.999 74.424 230.647 75.392 230.647 76.592C230.647 77.792 230.999 78.76 231.703 79.496C232.423 80.232 233.335 80.6 234.439 80.6ZM248.88 70.04C250.768 70.04 252.208 70.496 253.2 71.408C254.208 72.304 254.712 73.664 254.712 75.488V83H251.88V81.44C251.512 82 250.984 82.432 250.296 82.736C249.624 83.024 248.808 83.168 247.848 83.168C246.888 83.168 246.048 83.008 245.328 82.688C244.608 82.352 244.048 81.896 243.648 81.32C243.264 80.728 243.072 80.064 243.072 79.328C243.072 78.176 243.496 77.256 244.344 76.568C245.208 75.864 246.56 75.512 248.4 75.512H251.712V75.32C251.712 74.424 251.44 73.736 250.896 73.256C250.368 72.776 249.576 72.536 248.52 72.536C247.8 72.536 247.088 72.648 246.384 72.872C245.696 73.096 245.112 73.408 244.632 73.808L243.456 71.624C244.128 71.112 244.936 70.72 245.88 70.448C246.824 70.176 247.824 70.04 248.88 70.04ZM248.472 80.984C249.224 80.984 249.888 80.816 250.464 80.48C251.056 80.128 251.472 79.632 251.712 78.992V77.504H248.616C246.888 77.504 246.024 78.072 246.024 79.208C246.024 79.752 246.24 80.184 246.672 80.504C247.104 80.824 247.704 80.984 248.472 80.984ZM249 87.872C248.584 87.872 248.24 87.744 247.968 87.488C247.696 87.232 247.56 86.888 247.56 86.456C247.56 86.04 247.696 85.688 247.968 85.4C248.24 85.128 248.584 84.992 249 84.992C249.416 84.992 249.76 85.128 250.032 85.4C250.304 85.688 250.44 86.04 250.44 86.456C250.44 86.888 250.304 87.232 250.032 87.488C249.76 87.744 249.416 87.872 249 87.872ZM258.562 70.184H261.562V83H258.562V70.184ZM260.074 68.072C259.53 68.072 259.074 67.904 258.706 67.568C258.338 67.216 258.154 66.784 258.154 66.272C258.154 65.76 258.338 65.336 258.706 65C259.074 64.648 259.53 64.472 260.074 64.472C260.618 64.472 261.074 64.64 261.442 64.976C261.81 65.296 261.994 65.704 261.994 66.2C261.994 66.728 261.81 67.176 261.442 67.544C261.09 67.896 260.634 68.072 260.074 68.072Z" fill="#12265A"/>
<path opacity="0.7" d="M144.27 110.42H140.994V113.642H139.482V110.42H136.206V108.998H139.482V105.758H140.994V108.998H144.27V110.42ZM154.045 109.394C154.765 109.67 155.317 110.066 155.701 110.582C156.085 111.098 156.277 111.716 156.277 112.436C156.277 113.192 156.073 113.852 155.665 114.416C155.257 114.968 154.675 115.394 153.919 115.694C153.163 115.994 152.275 116.144 151.255 116.144C150.247 116.144 149.365 115.994 148.609 115.694C147.865 115.394 147.289 114.968 146.881 114.416C146.473 113.852 146.269 113.192 146.269 112.436C146.269 111.716 146.455 111.098 146.827 110.582C147.211 110.066 147.763 109.67 148.483 109.394C147.907 109.118 147.469 108.752 147.169 108.296C146.869 107.84 146.719 107.3 146.719 106.676C146.719 105.98 146.905 105.374 147.277 104.858C147.661 104.342 148.195 103.946 148.879 103.67C149.563 103.394 150.355 103.256 151.255 103.256C152.167 103.256 152.965 103.394 153.649 103.67C154.345 103.946 154.879 104.342 155.251 104.858C155.635 105.374 155.827 105.98 155.827 106.676C155.827 107.288 155.671 107.828 155.359 108.296C155.059 108.752 154.621 109.118 154.045 109.394ZM151.255 104.714C150.403 104.714 149.731 104.9 149.239 105.272C148.747 105.632 148.501 106.124 148.501 106.748C148.501 107.372 148.741 107.864 149.221 108.224C149.713 108.584 150.391 108.764 151.255 108.764C152.131 108.764 152.815 108.584 153.307 108.224C153.811 107.864 154.063 107.372 154.063 106.748C154.063 106.124 153.805 105.632 153.289 105.272C152.785 104.9 152.107 104.714 151.255 104.714ZM151.255 114.686C152.251 114.686 153.037 114.482 153.613 114.074C154.189 113.654 154.477 113.09 154.477 112.382C154.477 111.686 154.189 111.14 153.613 110.744C153.037 110.336 152.251 110.132 151.255 110.132C150.259 110.132 149.479 110.336 148.915 110.744C148.351 111.14 148.069 111.686 148.069 112.382C148.069 113.09 148.351 113.654 148.915 114.074C149.479 114.482 150.259 114.686 151.255 114.686ZM168.887 112.904H166.493V116H164.747V112.904H157.745V111.644L164.189 103.4H166.133L159.959 111.356H164.801V108.62H166.493V111.356H168.887V112.904ZM178.706 103.4V116H176.924V104.966H174.08V103.4H178.706ZM192.424 112.904H190.03V116H188.284V112.904H181.282V111.644L187.726 103.4H189.67L183.496 111.356H188.338V108.62H190.03V111.356H192.424V112.904ZM197.05 108.422C198.85 108.422 200.17 108.764 201.01 109.448C201.862 110.12 202.288 111.044 202.288 112.22C202.288 112.964 202.108 113.636 201.748 114.236C201.4 114.824 200.866 115.292 200.146 115.64C199.438 115.976 198.562 116.144 197.518 116.144C196.63 116.144 195.772 116.012 194.944 115.748C194.116 115.472 193.432 115.094 192.892 114.614L193.72 113.192C194.152 113.6 194.704 113.93 195.376 114.182C196.048 114.422 196.756 114.542 197.5 114.542C198.448 114.542 199.18 114.344 199.696 113.948C200.224 113.54 200.488 112.988 200.488 112.292C200.488 111.536 200.2 110.966 199.624 110.582C199.048 110.186 198.064 109.988 196.672 109.988H193.81L194.476 103.4H201.586V104.966H195.988L195.646 108.422H197.05ZM214.056 108.35C214.884 108.35 215.622 108.506 216.27 108.818C216.93 109.13 217.446 109.58 217.818 110.168C218.19 110.744 218.376 111.41 218.376 112.166C218.376 112.958 218.178 113.654 217.782 114.254C217.398 114.854 216.864 115.322 216.18 115.658C215.508 115.982 214.752 116.144 213.912 116.144C212.22 116.144 210.912 115.598 209.988 114.506C209.076 113.414 208.62 111.866 208.62 109.862C208.62 108.458 208.866 107.264 209.358 106.28C209.862 105.284 210.558 104.534 211.446 104.03C212.346 103.514 213.39 103.256 214.578 103.256C215.19 103.256 215.766 103.322 216.306 103.454C216.846 103.574 217.314 103.754 217.71 103.994L217.026 105.398C216.426 105.002 215.622 104.804 214.614 104.804C213.306 104.804 212.28 105.212 211.536 106.028C210.792 106.832 210.42 108.008 210.42 109.556C210.42 109.748 210.426 109.898 210.438 110.006C210.798 109.466 211.29 109.058 211.914 108.782C212.55 108.494 213.264 108.35 214.056 108.35ZM213.84 114.686C214.668 114.686 215.34 114.464 215.856 114.02C216.372 113.576 216.63 112.982 216.63 112.238C216.63 111.494 216.366 110.906 215.838 110.474C215.322 110.03 214.626 109.808 213.75 109.808C213.186 109.808 212.682 109.916 212.238 110.132C211.806 110.348 211.464 110.642 211.212 111.014C210.972 111.386 210.852 111.8 210.852 112.256C210.852 112.7 210.966 113.108 211.194 113.48C211.434 113.84 211.776 114.134 212.22 114.362C212.676 114.578 213.216 114.686 213.84 114.686ZM227.433 109.394C228.153 109.67 228.705 110.066 229.089 110.582C229.473 111.098 229.665 111.716 229.665 112.436C229.665 113.192 229.461 113.852 229.053 114.416C228.645 114.968 228.063 115.394 227.307 115.694C226.551 115.994 225.663 116.144 224.643 116.144C223.635 116.144 222.753 115.994 221.997 115.694C221.253 115.394 220.677 114.968 220.269 114.416C219.861 113.852 219.657 113.192 219.657 112.436C219.657 111.716 219.843 111.098 220.215 110.582C220.599 110.066 221.151 109.67 221.871 109.394C221.295 109.118 220.857 108.752 220.557 108.296C220.257 107.84 220.107 107.3 220.107 106.676C220.107 105.98 220.293 105.374 220.665 104.858C221.049 104.342 221.583 103.946 222.267 103.67C222.951 103.394 223.743 103.256 224.643 103.256C225.555 103.256 226.353 103.394 227.037 103.67C227.733 103.946 228.267 104.342 228.639 104.858C229.023 105.374 229.215 105.98 229.215 106.676C229.215 107.288 229.059 107.828 228.747 108.296C228.447 108.752 228.009 109.118 227.433 109.394ZM224.643 104.714C223.791 104.714 223.119 104.9 222.627 105.272C222.135 105.632 221.889 106.124 221.889 106.748C221.889 107.372 222.129 107.864 222.609 108.224C223.101 108.584 223.779 108.764 224.643 108.764C225.519 108.764 226.203 108.584 226.695 108.224C227.199 107.864 227.451 107.372 227.451 106.748C227.451 106.124 227.193 105.632 226.677 105.272C226.173 104.9 225.495 104.714 224.643 104.714ZM224.643 114.686C225.639 114.686 226.425 114.482 227.001 114.074C227.577 113.654 227.865 113.09 227.865 112.382C227.865 111.686 227.577 111.14 227.001 110.744C226.425 110.336 225.639 110.132 224.643 110.132C223.647 110.132 222.867 110.336 222.303 110.744C221.739 111.14 221.457 111.686 221.457 112.382C221.457 113.09 221.739 113.654 222.303 114.074C222.867 114.482 223.647 114.686 224.643 114.686ZM235.399 103.256C237.091 103.256 238.393 103.802 239.305 104.894C240.229 105.986 240.691 107.534 240.691 109.538C240.691 110.942 240.439 112.142 239.935 113.138C239.443 114.122 238.747 114.872 237.847 115.388C236.959 115.892 235.921 116.144 234.733 116.144C234.121 116.144 233.545 116.084 233.005 115.964C232.465 115.832 231.997 115.646 231.601 115.406L232.285 114.002C232.897 114.398 233.707 114.596 234.715 114.596C236.023 114.596 237.043 114.194 237.775 113.39C238.519 112.574 238.891 111.392 238.891 109.844V109.394C238.531 109.934 238.033 110.348 237.397 110.636C236.761 110.912 236.047 111.05 235.255 111.05C234.427 111.05 233.683 110.894 233.023 110.582C232.375 110.27 231.865 109.826 231.493 109.25C231.133 108.662 230.953 107.99 230.953 107.234C230.953 106.442 231.145 105.746 231.529 105.146C231.925 104.546 232.459 104.084 233.131 103.76C233.803 103.424 234.559 103.256 235.399 103.256ZM235.561 109.592C236.125 109.592 236.629 109.484 237.073 109.268C237.517 109.052 237.859 108.758 238.099 108.386C238.351 108.014 238.477 107.6 238.477 107.144C238.477 106.7 238.357 106.298 238.117 105.938C237.889 105.566 237.547 105.272 237.091 105.056C236.647 104.828 236.107 104.714 235.471 104.714C234.643 104.714 233.971 104.936 233.455 105.38C232.951 105.824 232.699 106.418 232.699 107.162C232.699 107.906 232.957 108.5 233.473 108.944C233.989 109.376 234.685 109.592 235.561 109.592ZM256.437 103.4V104.624L251.343 116H249.435L254.421 104.966H248.661V107.216H246.933V103.4H256.437ZM262.1 103.256C263.792 103.256 265.094 103.802 266.006 104.894C266.93 105.986 267.392 107.534 267.392 109.538C267.392 110.942 267.14 112.142 266.636 113.138C266.144 114.122 265.448 114.872 264.548 115.388C263.66 115.892 262.622 116.144 261.434 116.144C260.822 116.144 260.246 116.084 259.706 115.964C259.166 115.832 258.698 115.646 258.302 115.406L258.986 114.002C259.598 114.398 260.408 114.596 261.416 114.596C262.724 114.596 263.744 114.194 264.476 113.39C265.22 112.574 265.592 111.392 265.592 109.844V109.394C265.232 109.934 264.734 110.348 264.098 110.636C263.462 110.912 262.748 111.05 261.956 111.05C261.128 111.05 260.384 110.894 259.724 110.582C259.076 110.27 258.566 109.826 258.194 109.25C257.834 108.662 257.654 107.99 257.654 107.234C257.654 106.442 257.846 105.746 258.23 105.146C258.626 104.546 259.16 104.084 259.832 103.76C260.504 103.424 261.26 103.256 262.1 103.256ZM262.262 109.592C262.826 109.592 263.33 109.484 263.774 109.268C264.218 109.052 264.56 108.758 264.8 108.386C265.052 108.014 265.178 107.6 265.178 107.144C265.178 106.7 265.058 106.298 264.818 105.938C264.59 105.566 264.248 105.272 263.792 105.056C263.348 104.828 262.808 104.714 262.172 104.714C261.344 104.714 260.672 104.936 260.156 105.38C259.652 105.824 259.4 106.418 259.4 107.162C259.4 107.906 259.658 108.5 260.174 108.944C260.69 109.376 261.386 109.592 262.262 109.592ZM276.828 109.394C277.548 109.67 278.1 110.066 278.484 110.582C278.868 111.098 279.06 111.716 279.06 112.436C279.06 113.192 278.856 113.852 278.448 114.416C278.04 114.968 277.458 115.394 276.702 115.694C275.946 115.994 275.058 116.144 274.038 116.144C273.03 116.144 272.148 115.994 271.392 115.694C270.648 115.394 270.072 114.968 269.664 114.416C269.256 113.852 269.052 113.192 269.052 112.436C269.052 111.716 269.238 111.098 269.61 110.582C269.994 110.066 270.546 109.67 271.266 109.394C270.69 109.118 270.252 108.752 269.952 108.296C269.652 107.84 269.502 107.3 269.502 106.676C269.502 105.98 269.688 105.374 270.06 104.858C270.444 104.342 270.978 103.946 271.662 103.67C272.346 103.394 273.138 103.256 274.038 103.256C274.95 103.256 275.748 103.394 276.432 103.67C277.128 103.946 277.662 104.342 278.034 104.858C278.418 105.374 278.61 105.98 278.61 106.676C278.61 107.288 278.454 107.828 278.142 108.296C277.842 108.752 277.404 109.118 276.828 109.394ZM274.038 104.714C273.186 104.714 272.514 104.9 272.022 105.272C271.53 105.632 271.284 106.124 271.284 106.748C271.284 107.372 271.524 107.864 272.004 108.224C272.496 108.584 273.174 108.764 274.038 108.764C274.914 108.764 275.598 108.584 276.09 108.224C276.594 107.864 276.846 107.372 276.846 106.748C276.846 106.124 276.588 105.632 276.072 105.272C275.568 104.9 274.89 104.714 274.038 104.714ZM274.038 114.686C275.034 114.686 275.82 114.482 276.396 114.074C276.972 113.654 277.26 113.09 277.26 112.382C277.26 111.686 276.972 111.14 276.396 110.744C275.82 110.336 275.034 110.132 274.038 110.132C273.042 110.132 272.262 110.336 271.698 110.744C271.134 111.14 270.852 111.686 270.852 112.382C270.852 113.09 271.134 113.654 271.698 114.074C272.262 114.482 273.042 114.686 274.038 114.686Z" fill="#23221F"/>
<defs>
<linearGradient id="paint0_linear_158_91" x1="76.0005" y1="125.5" x2="76.0717" y2="91.7809" gradientUnits="userSpaceOnUse">
<stop stop-color="#E61F1F"/>
<stop offset="1" stop-color="#FF6969"/>
</linearGradient>
<clipPath id="clip0_158_91">
<rect width="62" height="62" fill="white" transform="translate(49 60)"/>
</clipPath>
</defs>
</svg>
