<svg width="137" height="32" viewBox="0 0 137 32" fill="none" xmlns="http://www.w3.org/2000/svg">
<path fill-rule="evenodd" clip-rule="evenodd" d="M23.9917 20.628C23.9419 20.1239 23.6717 19.674 23.2503 19.3928L20.3929 17.4874C19.7287 17.0452 18.8349 17.1334 18.2694 17.6984L17.5175 18.4497C17.0764 18.3862 16.0275 18.1237 14.9517 17.0479C13.876 15.9722 13.6135 14.9233 13.5499 14.4822L14.3012 13.7303C14.8662 13.1653 14.955 12.2721 14.5117 11.6063L12.6068 8.74957C12.3256 8.32814 11.8757 8.058 11.3715 8.00814C10.8673 7.95883 10.3736 8.13526 10.0158 8.49312L8.82494 9.68336C8.25779 10.2505 7.95858 11.0254 8.00463 11.8096C8.09449 13.3364 8.75595 16.4079 12.1739 19.8257C15.5924 23.2436 18.6634 23.9051 20.1902 23.9949C20.958 24.0429 21.7421 23.7496 22.3159 23.1746L23.5067 21.9837C23.8646 21.6259 24.0416 21.1316 23.9917 20.628ZM9.00291 11.751C9.07937 13.0495 9.64748 15.8852 12.8809 19.1186C16.1152 22.3522 18.9505 22.9202 20.2489 22.9967L20.2526 22.9969C20.7285 23.0266 21.2335 22.8436 21.6081 22.4682L21.6088 22.4675L22.7996 21.2767C22.9459 21.1304 23.0169 20.9316 22.9966 20.7265C22.9762 20.5208 22.8678 20.3398 22.6955 20.2248L19.8387 18.3198C19.5712 18.1418 19.2048 18.1774 18.9762 18.4058L17.8703 19.5109L17.3749 19.4395C16.7678 19.352 15.504 19.0144 14.2446 17.755C12.9852 16.4956 12.6476 15.2319 12.5601 14.6249L12.4887 14.1294L13.5938 13.0235C13.8217 12.7956 13.8587 12.4302 13.6795 12.1608L11.7749 9.30451C11.66 9.13238 11.4793 9.02382 11.2737 9.00332C11.0666 8.98323 10.8685 9.05456 10.7229 9.20018L9.53207 10.3904C9.1619 10.7607 8.97407 11.2592 9.00291 11.751Z" fill="white"/>
<rect x="0.5" y="0.5" width="31" height="31" rx="15.5" stroke="white"/>
<path d="M45.424 22.192C44.496 22.192 43.6693 21.9627 42.944 21.504C42.2187 21.0453 41.648 20.384 41.232 19.52C40.8267 18.6453 40.624 17.6053 40.624 16.4C40.624 15.1947 40.8267 14.16 41.232 13.296C41.648 12.4213 42.2187 11.7547 42.944 11.296C43.6693 10.8373 44.496 10.608 45.424 10.608C46.352 10.608 47.1787 10.8373 47.904 11.296C48.6293 11.7547 49.1947 12.4213 49.6 13.296C50.016 14.16 50.224 15.1947 50.224 16.4C50.224 17.6053 50.016 18.6453 49.6 19.52C49.1947 20.384 48.6293 21.0453 47.904 21.504C47.1787 21.9627 46.352 22.192 45.424 22.192ZM45.424 20C46.1067 20 46.64 19.7067 47.024 19.12C47.4187 18.5333 47.616 17.6267 47.616 16.4C47.616 15.1733 47.4187 14.2667 47.024 13.68C46.64 13.0933 46.1067 12.8 45.424 12.8C44.752 12.8 44.2187 13.0933 43.824 13.68C43.44 14.2667 43.248 15.1733 43.248 16.4C43.248 17.6267 43.44 18.5333 43.824 19.12C44.2187 19.7067 44.752 20 45.424 20ZM55.7096 10.8V22H53.1176V12.88H50.8776V10.8H55.7096ZM66.0233 19.888V22H57.5592V20.32L61.8793 16.24C62.3379 15.8027 62.6473 15.4293 62.8073 15.12C62.9673 14.8 63.0473 14.4853 63.0473 14.176C63.0473 13.728 62.8926 13.3867 62.5833 13.152C62.2846 12.9067 61.8419 12.784 61.2552 12.784C60.7646 12.784 60.3219 12.88 59.9273 13.072C59.5326 13.2533 59.2019 13.5307 58.9353 13.904L57.0473 12.688C57.4846 12.0373 58.0873 11.5307 58.8553 11.168C59.6233 10.7947 60.5033 10.608 61.4953 10.608C62.3273 10.608 63.0526 10.7467 63.6713 11.024C64.3006 11.2907 64.7859 11.6747 65.1273 12.176C65.4793 12.6667 65.6553 13.248 65.6553 13.92C65.6553 14.528 65.5273 15.0987 65.2713 15.632C65.0153 16.1653 64.5193 16.7733 63.7833 17.456L61.2073 19.888H66.0233ZM72.3248 15.36C73.3061 15.52 74.0581 15.888 74.5808 16.464C75.1034 17.0293 75.3648 17.7333 75.3648 18.576C75.3648 19.2267 75.1941 19.8293 74.8528 20.384C74.5114 20.928 73.9888 21.3653 73.2848 21.696C72.5914 22.0267 71.7381 22.192 70.7248 22.192C69.9354 22.192 69.1568 22.0907 68.3888 21.888C67.6314 21.6747 66.9861 21.376 66.4527 20.992L67.4608 19.008C67.8874 19.328 68.3781 19.5787 68.9328 19.76C69.4981 19.9307 70.0741 20.016 70.6608 20.016C71.3114 20.016 71.8234 19.8933 72.1968 19.648C72.5701 19.392 72.7568 19.0347 72.7568 18.576C72.7568 17.6587 72.0581 17.2 70.6608 17.2H69.4768V15.488L71.7808 12.88H67.0128V10.8H74.8528V12.48L72.3248 15.36ZM86.8175 19.648H84.9935V22H82.4655V19.648H76.4335V17.904L81.7135 10.8H84.4335L79.5375 17.536H82.5455V15.44H84.9935V17.536H86.8175V19.648ZM91.4015 15.008C92.9802 15.008 94.1428 15.3227 94.8895 15.952C95.6468 16.5813 96.0255 17.424 96.0255 18.48C96.0255 19.1627 95.8548 19.7867 95.5135 20.352C95.1722 20.9067 94.6495 21.3547 93.9455 21.696C93.2522 22.0267 92.3935 22.192 91.3695 22.192C90.5802 22.192 89.8015 22.0907 89.0335 21.888C88.2762 21.6747 87.6308 21.376 87.0975 20.992L88.1215 19.008C88.5482 19.328 89.0388 19.5787 89.5935 19.76C90.1482 19.9307 90.7188 20.016 91.3055 20.016C91.9562 20.016 92.4682 19.888 92.8415 19.632C93.2148 19.376 93.4015 19.0187 93.4015 18.56C93.4015 18.08 93.2042 17.7173 92.8095 17.472C92.4255 17.2267 91.7535 17.104 90.7935 17.104H87.9295L88.5055 10.8H95.3375V12.88H90.6655L90.4895 15.008H91.4015ZM102.469 14.976C103.184 14.976 103.834 15.12 104.421 15.408C105.008 15.696 105.472 16.1067 105.813 16.64C106.154 17.1627 106.325 17.7707 106.325 18.464C106.325 19.2107 106.138 19.8667 105.765 20.432C105.392 20.9973 104.88 21.4347 104.229 21.744C103.589 22.0427 102.874 22.192 102.085 22.192C100.517 22.192 99.2905 21.712 98.4051 20.752C97.5198 19.792 97.0771 18.4213 97.0771 16.64C97.0771 15.3707 97.3171 14.2827 97.7971 13.376C98.2771 12.4693 98.9438 11.7813 99.7971 11.312C100.661 10.8427 101.658 10.608 102.789 10.608C103.386 10.608 103.957 10.6773 104.501 10.816C105.056 10.944 105.525 11.1307 105.909 11.376L104.949 13.28C104.394 12.9067 103.696 12.72 102.853 12.72C101.904 12.72 101.152 12.9973 100.597 13.552C100.042 14.1067 99.7438 14.912 99.7011 15.968C100.362 15.3067 101.285 14.976 102.469 14.976ZM101.941 20.256C102.496 20.256 102.944 20.1067 103.285 19.808C103.637 19.5093 103.813 19.104 103.813 18.592C103.813 18.08 103.637 17.6747 103.285 17.376C102.944 17.0667 102.485 16.912 101.909 16.912C101.344 16.912 100.88 17.072 100.517 17.392C100.154 17.7013 99.9731 18.1013 99.9731 18.592C99.9731 19.0827 100.149 19.4827 100.501 19.792C100.853 20.1013 101.333 20.256 101.941 20.256ZM115.97 10.8V12.48L111.81 22H108.994L113.01 12.912H109.298V14.736H106.994V10.8H115.97ZM124.522 16.112C125.077 16.3893 125.498 16.752 125.786 17.2C126.085 17.648 126.234 18.1653 126.234 18.752C126.234 19.4453 126.037 20.0533 125.642 20.576C125.248 21.088 124.693 21.488 123.978 21.776C123.264 22.0533 122.437 22.192 121.498 22.192C120.56 22.192 119.733 22.0533 119.018 21.776C118.314 21.488 117.765 21.088 117.37 20.576C116.986 20.0533 116.794 19.4453 116.794 18.752C116.794 18.1653 116.938 17.648 117.226 17.2C117.525 16.752 117.946 16.3893 118.49 16.112C118.074 15.856 117.754 15.536 117.53 15.152C117.306 14.7573 117.194 14.3093 117.194 13.808C117.194 13.1573 117.376 12.592 117.738 12.112C118.101 11.632 118.608 11.264 119.258 11.008C119.909 10.7413 120.656 10.608 121.498 10.608C122.352 10.608 123.104 10.7413 123.754 11.008C124.416 11.264 124.928 11.632 125.29 12.112C125.653 12.592 125.834 13.1573 125.834 13.808C125.834 14.3093 125.722 14.7573 125.498 15.152C125.274 15.536 124.949 15.856 124.522 16.112ZM121.498 12.512C120.976 12.512 120.554 12.64 120.234 12.896C119.925 13.1413 119.77 13.4827 119.77 13.92C119.77 14.3467 119.925 14.6827 120.234 14.928C120.544 15.1733 120.965 15.296 121.498 15.296C122.032 15.296 122.458 15.1733 122.778 14.928C123.098 14.6827 123.258 14.3467 123.258 13.92C123.258 13.4827 123.098 13.1413 122.778 12.896C122.458 12.64 122.032 12.512 121.498 12.512ZM121.498 20.288C122.149 20.288 122.661 20.144 123.034 19.856C123.418 19.5573 123.61 19.1627 123.61 18.672C123.61 18.1813 123.418 17.792 123.034 17.504C122.661 17.216 122.149 17.072 121.498 17.072C120.858 17.072 120.352 17.216 119.978 17.504C119.605 17.792 119.418 18.1813 119.418 18.672C119.418 19.1733 119.605 19.568 119.978 19.856C120.352 20.144 120.858 20.288 121.498 20.288ZM131.357 10.608C132.925 10.608 134.152 11.088 135.037 12.048C135.922 12.9973 136.365 14.368 136.365 16.16C136.365 17.4293 136.125 18.5173 135.645 19.424C135.176 20.3307 134.509 21.0187 133.645 21.488C132.781 21.9573 131.784 22.192 130.653 22.192C130.056 22.192 129.485 22.128 128.941 22C128.397 21.8613 127.933 21.6693 127.549 21.424L128.509 19.52C129.053 19.8933 129.752 20.08 130.605 20.08C131.554 20.08 132.306 19.8027 132.861 19.248C133.416 18.6827 133.714 17.872 133.757 16.816C133.085 17.488 132.157 17.824 130.973 17.824C130.258 17.824 129.608 17.68 129.021 17.392C128.434 17.104 127.97 16.6987 127.629 16.176C127.288 15.6427 127.117 15.0293 127.117 14.336C127.117 13.5893 127.304 12.9333 127.677 12.368C128.05 11.8027 128.557 11.3707 129.197 11.072C129.848 10.7627 130.568 10.608 131.357 10.608ZM131.549 15.888C132.114 15.888 132.573 15.7333 132.925 15.424C133.288 15.104 133.469 14.6987 133.469 14.208C133.469 13.7173 133.293 13.3173 132.941 13.008C132.6 12.6987 132.125 12.544 131.517 12.544C130.962 12.544 130.509 12.6933 130.157 12.992C129.816 13.2907 129.645 13.696 129.645 14.208C129.645 14.72 129.816 15.1307 130.157 15.44C130.509 15.7387 130.973 15.888 131.549 15.888Z" fill="white"/>
</svg>
